<?xml version="1.0" encoding="utf-8" standalone="no"?>
<!DOCTYPE svg PUBLIC "-//W3C//DTD SVG 1.1//EN"
  "http://www.w3.org/Graphics/SVG/1.1/DTD/svg11.dtd">
<svg xmlns:xlink="http://www.w3.org/1999/xlink" width="576pt" height="216pt" viewBox="0 0 576 216" xmlns="http://www.w3.org/2000/svg" version="1.1">
 <metadata>
  <rdf:RDF xmlns:dc="http://purl.org/dc/elements/1.1/" xmlns:cc="http://creativecommons.org/ns#" xmlns:rdf="http://www.w3.org/1999/02/22-rdf-syntax-ns#">
   <cc:Work>
    <dc:type rdf:resource="http://purl.org/dc/dcmitype/StillImage"/>
    <dc:date>2025-07-27T09:50:33.068880</dc:date>
    <dc:format>image/svg+xml</dc:format>
    <dc:creator>
     <cc:Agent>
      <dc:title>Matplotlib v3.7.1, https://matplotlib.org/</dc:title>
     </cc:Agent>
    </dc:creator>
   </cc:Work>
  </rdf:RDF>
 </metadata>
 <defs>
  <style type="text/css">*{stroke-linejoin: round; stroke-linecap: butt}</style>
 </defs>
 <g id="figure_1">
  <g id="patch_1">
   <path d="M 0 216 
L 576 216 
L 576 0 
L 0 0 
z
" style="fill: #ffffff"/>
  </g>
  <g id="axes_1">
   <g id="patch_2">
    <path d="M 47.41 188.12 
L 166.1325 188.12 
L 166.1325 25.44 
L 47.41 25.44 
z
" style="fill: #ffffff"/>
   </g>
   <g id="patch_3">
    <path d="M 47.41 173.8855 
L 87.627247 173.8855 
L 87.627247 161.6845 
L 47.41 161.6845 
z
" clip-path="url(#pac5e680e8c)" style="fill: #4682b4; opacity: 0.6"/>
   </g>
   <g id="patch_4">
    <path d="M 47.41 133.2155 
L 80.503897 133.2155 
L 80.503897 121.0145 
L 47.41 121.0145 
z
" clip-path="url(#pac5e680e8c)" style="fill: #4682b4; opacity: 0.6"/>
   </g>
   <g id="patch_5">
    <path d="M 47.41 92.5455 
L 61.359894 92.5455 
L 61.359894 80.3445 
L 47.41 80.3445 
z
" clip-path="url(#pac5e680e8c)" style="fill: #4682b4; opacity: 0.6"/>
   </g>
   <g id="patch_6">
    <path d="M 47.41 51.8755 
L 108.403684 51.8755 
L 108.403684 39.6745 
L 47.41 39.6745 
z
" clip-path="url(#pac5e680e8c)" style="fill: #4682b4; opacity: 0.6"/>
   </g>
   <g id="matplotlib.axis_1">
    <g id="xtick_1">
     <g id="line2d_1">
      <defs>
       <path id="m31b96793f4" d="M 0 0 
L 0 3.5 
" style="stroke: #000000; stroke-width: 0.8"/>
      </defs>
      <g>
       <use xlink:href="#m31b96793f4" x="47.41" y="188.12" style="stroke: #000000; stroke-width: 0.8"/>
      </g>
     </g>
     <g id="text_1">
      <!-- 0 -->
      <g transform="translate(44.22875 202.718437) scale(0.1 -0.1)">
       <defs>
        <path id="DejaVuSans-30" d="M 2034 4250 
Q 1547 4250 1301 3770 
Q 1056 3291 1056 2328 
Q 1056 1369 1301 889 
Q 1547 409 2034 409 
Q 2525 409 2770 889 
Q 3016 1369 3016 2328 
Q 3016 3291 2770 3770 
Q 2525 4250 2034 4250 
z
M 2034 4750 
Q 2819 4750 3233 4129 
Q 3647 3509 3647 2328 
Q 3647 1150 3233 529 
Q 2819 -91 2034 -91 
Q 1250 -91 836 529 
Q 422 1150 422 2328 
Q 422 3509 836 4129 
Q 1250 4750 2034 4750 
z
" transform="scale(0.015625)"/>
       </defs>
       <use xlink:href="#DejaVuSans-30"/>
      </g>
     </g>
    </g>
    <g id="xtick_2">
     <g id="line2d_2">
      <g>
       <use xlink:href="#m31b96793f4" x="121.611562" y="188.12" style="stroke: #000000; stroke-width: 0.8"/>
      </g>
     </g>
     <g id="text_2">
      <!-- 50 -->
      <g transform="translate(115.249062 202.718437) scale(0.1 -0.1)">
       <defs>
        <path id="DejaVuSans-35" d="M 691 4666 
L 3169 4666 
L 3169 4134 
L 1269 4134 
L 1269 2991 
Q 1406 3038 1543 3061 
Q 1681 3084 1819 3084 
Q 2600 3084 3056 2656 
Q 3513 2228 3513 1497 
Q 3513 744 3044 326 
Q 2575 -91 1722 -91 
Q 1428 -91 1123 -41 
Q 819 9 494 109 
L 494 744 
Q 775 591 1075 516 
Q 1375 441 1709 441 
Q 2250 441 2565 725 
Q 2881 1009 2881 1497 
Q 2881 1984 2565 2268 
Q 2250 2553 1709 2553 
Q 1456 2553 1204 2497 
Q 953 2441 691 2322 
L 691 4666 
z
" transform="scale(0.015625)"/>
       </defs>
       <use xlink:href="#DejaVuSans-35"/>
       <use xlink:href="#DejaVuSans-30" x="63.623047"/>
      </g>
     </g>
    </g>
   </g>
   <g id="matplotlib.axis_2">
    <g id="ytick_1">
     <g id="line2d_3">
      <defs>
       <path id="m534fe0a444" d="M 0 0 
L -3.5 0 
" style="stroke: #000000; stroke-width: 0.8"/>
      </defs>
      <g>
       <use xlink:href="#m534fe0a444" x="47.41" y="167.785" style="stroke: #000000; stroke-width: 0.8"/>
      </g>
     </g>
     <g id="text_3">
      <!-- &lt;=10 -->
      <g transform="translate(10.925625 171.584219) scale(0.1 -0.1)">
       <defs>
        <path id="DejaVuSans-3c" d="M 4684 3150 
L 1459 2003 
L 4684 863 
L 4684 294 
L 678 1747 
L 678 2266 
L 4684 3719 
L 4684 3150 
z
" transform="scale(0.015625)"/>
        <path id="DejaVuSans-3d" d="M 678 2906 
L 4684 2906 
L 4684 2381 
L 678 2381 
L 678 2906 
z
M 678 1631 
L 4684 1631 
L 4684 1100 
L 678 1100 
L 678 1631 
z
" transform="scale(0.015625)"/>
        <path id="DejaVuSans-31" d="M 794 531 
L 1825 531 
L 1825 4091 
L 703 3866 
L 703 4441 
L 1819 4666 
L 2450 4666 
L 2450 531 
L 3481 531 
L 3481 0 
L 794 0 
L 794 531 
z
" transform="scale(0.015625)"/>
       </defs>
       <use xlink:href="#DejaVuSans-3c"/>
       <use xlink:href="#DejaVuSans-3d" x="83.789062"/>
       <use xlink:href="#DejaVuSans-31" x="167.578125"/>
       <use xlink:href="#DejaVuSans-30" x="231.201172"/>
      </g>
     </g>
    </g>
    <g id="ytick_2">
     <g id="line2d_4">
      <g>
       <use xlink:href="#m534fe0a444" x="47.41" y="127.115" style="stroke: #000000; stroke-width: 0.8"/>
      </g>
     </g>
     <g id="text_4">
      <!-- 10-50 -->
      <g transform="translate(11.352188 130.914219) scale(0.1 -0.1)">
       <defs>
        <path id="DejaVuSans-2d" d="M 313 2009 
L 1997 2009 
L 1997 1497 
L 313 1497 
L 313 2009 
z
" transform="scale(0.015625)"/>
       </defs>
       <use xlink:href="#DejaVuSans-31"/>
       <use xlink:href="#DejaVuSans-30" x="63.623047"/>
       <use xlink:href="#DejaVuSans-2d" x="127.246094"/>
       <use xlink:href="#DejaVuSans-35" x="163.330078"/>
       <use xlink:href="#DejaVuSans-30" x="226.953125"/>
      </g>
     </g>
    </g>
    <g id="ytick_3">
     <g id="line2d_5">
      <g>
       <use xlink:href="#m534fe0a444" x="47.41" y="86.445" style="stroke: #000000; stroke-width: 0.8"/>
      </g>
     </g>
     <g id="text_5">
      <!-- 50-90 -->
      <g transform="translate(11.352188 90.244219) scale(0.1 -0.1)">
       <defs>
        <path id="DejaVuSans-39" d="M 703 97 
L 703 672 
Q 941 559 1184 500 
Q 1428 441 1663 441 
Q 2288 441 2617 861 
Q 2947 1281 2994 2138 
Q 2813 1869 2534 1725 
Q 2256 1581 1919 1581 
Q 1219 1581 811 2004 
Q 403 2428 403 3163 
Q 403 3881 828 4315 
Q 1253 4750 1959 4750 
Q 2769 4750 3195 4129 
Q 3622 3509 3622 2328 
Q 3622 1225 3098 567 
Q 2575 -91 1691 -91 
Q 1453 -91 1209 -44 
Q 966 3 703 97 
z
M 1959 2075 
Q 2384 2075 2632 2365 
Q 2881 2656 2881 3163 
Q 2881 3666 2632 3958 
Q 2384 4250 1959 4250 
Q 1534 4250 1286 3958 
Q 1038 3666 1038 3163 
Q 1038 2656 1286 2365 
Q 1534 2075 1959 2075 
z
" transform="scale(0.015625)"/>
       </defs>
       <use xlink:href="#DejaVuSans-35"/>
       <use xlink:href="#DejaVuSans-30" x="63.623047"/>
       <use xlink:href="#DejaVuSans-2d" x="127.246094"/>
       <use xlink:href="#DejaVuSans-39" x="163.330078"/>
       <use xlink:href="#DejaVuSans-30" x="226.953125"/>
      </g>
     </g>
    </g>
    <g id="ytick_4">
     <g id="line2d_6">
      <g>
       <use xlink:href="#m534fe0a444" x="47.41" y="45.775" style="stroke: #000000; stroke-width: 0.8"/>
      </g>
     </g>
     <g id="text_6">
      <!-- &gt;=90 -->
      <g transform="translate(10.925625 49.574219) scale(0.1 -0.1)">
       <defs>
        <path id="DejaVuSans-3e" d="M 678 3150 
L 678 3719 
L 4684 2266 
L 4684 1747 
L 678 294 
L 678 863 
L 3897 2003 
L 678 3150 
z
" transform="scale(0.015625)"/>
       </defs>
       <use xlink:href="#DejaVuSans-3e"/>
       <use xlink:href="#DejaVuSans-3d" x="83.789062"/>
       <use xlink:href="#DejaVuSans-39" x="167.578125"/>
       <use xlink:href="#DejaVuSans-30" x="231.201172"/>
      </g>
     </g>
    </g>
   </g>
   <g id="line2d_7">
    <path d="M 87.627247 167.785 
L 80.503897 127.115 
L 61.359894 86.445 
L 108.403684 45.775 
" clip-path="url(#pac5e680e8c)" style="fill: none; stroke: #000000; stroke-width: 2; stroke-linecap: square"/>
    <defs>
     <path id="m65a56663ed" d="M 0 1.5 
C 0.397805 1.5 0.77937 1.341951 1.06066 1.06066 
C 1.341951 0.77937 1.5 0.397805 1.5 0 
C 1.5 -0.397805 1.341951 -0.77937 1.06066 -1.06066 
C 0.77937 -1.341951 0.397805 -1.5 0 -1.5 
C -0.397805 -1.5 -0.77937 -1.341951 -1.06066 -1.06066 
C -1.341951 -0.77937 -1.5 -0.397805 -1.5 0 
C -1.5 0.397805 -1.341951 0.77937 -1.06066 1.06066 
C -0.77937 1.341951 -0.397805 1.5 0 1.5 
z
" style="stroke: #000000"/>
    </defs>
    <g clip-path="url(#pac5e680e8c)">
     <use xlink:href="#m65a56663ed" x="87.627247" y="167.785" style="stroke: #000000"/>
     <use xlink:href="#m65a56663ed" x="80.503897" y="127.115" style="stroke: #000000"/>
     <use xlink:href="#m65a56663ed" x="61.359894" y="86.445" style="stroke: #000000"/>
     <use xlink:href="#m65a56663ed" x="108.403684" y="45.775" style="stroke: #000000"/>
    </g>
   </g>
   <g id="patch_7">
    <path d="M 47.41 188.12 
L 47.41 25.44 
" style="fill: none; stroke: #000000; stroke-width: 0.8; stroke-linejoin: miter; stroke-linecap: square"/>
   </g>
   <g id="patch_8">
    <path d="M 166.1325 188.12 
L 166.1325 25.44 
" style="fill: none; stroke: #000000; stroke-width: 0.8; stroke-linejoin: miter; stroke-linecap: square"/>
   </g>
   <g id="patch_9">
    <path d="M 47.41 188.12 
L 166.1325 188.12 
" style="fill: none; stroke: #000000; stroke-width: 0.8; stroke-linejoin: miter; stroke-linecap: square"/>
   </g>
   <g id="patch_10">
    <path d="M 47.41 25.44 
L 166.1325 25.44 
" style="fill: none; stroke: #000000; stroke-width: 0.8; stroke-linejoin: miter; stroke-linecap: square"/>
   </g>
   <g id="text_7">
    <!-- core1 -->
    <g transform="translate(89.96 19.44) scale(0.12 -0.12)">
     <defs>
      <path id="DejaVuSans-63" d="M 3122 3366 
L 3122 2828 
Q 2878 2963 2633 3030 
Q 2388 3097 2138 3097 
Q 1578 3097 1268 2742 
Q 959 2388 959 1747 
Q 959 1106 1268 751 
Q 1578 397 2138 397 
Q 2388 397 2633 464 
Q 2878 531 3122 666 
L 3122 134 
Q 2881 22 2623 -34 
Q 2366 -91 2075 -91 
Q 1284 -91 818 406 
Q 353 903 353 1747 
Q 353 2603 823 3093 
Q 1294 3584 2113 3584 
Q 2378 3584 2631 3529 
Q 2884 3475 3122 3366 
z
" transform="scale(0.015625)"/>
      <path id="DejaVuSans-6f" d="M 1959 3097 
Q 1497 3097 1228 2736 
Q 959 2375 959 1747 
Q 959 1119 1226 758 
Q 1494 397 1959 397 
Q 2419 397 2687 759 
Q 2956 1122 2956 1747 
Q 2956 2369 2687 2733 
Q 2419 3097 1959 3097 
z
M 1959 3584 
Q 2709 3584 3137 3096 
Q 3566 2609 3566 1747 
Q 3566 888 3137 398 
Q 2709 -91 1959 -91 
Q 1206 -91 779 398 
Q 353 888 353 1747 
Q 353 2609 779 3096 
Q 1206 3584 1959 3584 
z
" transform="scale(0.015625)"/>
      <path id="DejaVuSans-72" d="M 2631 2963 
Q 2534 3019 2420 3045 
Q 2306 3072 2169 3072 
Q 1681 3072 1420 2755 
Q 1159 2438 1159 1844 
L 1159 0 
L 581 0 
L 581 3500 
L 1159 3500 
L 1159 2956 
Q 1341 3275 1631 3429 
Q 1922 3584 2338 3584 
Q 2397 3584 2469 3576 
Q 2541 3569 2628 3553 
L 2631 2963 
z
" transform="scale(0.015625)"/>
      <path id="DejaVuSans-65" d="M 3597 1894 
L 3597 1613 
L 953 1613 
Q 991 1019 1311 708 
Q 1631 397 2203 397 
Q 2534 397 2845 478 
Q 3156 559 3463 722 
L 3463 178 
Q 3153 47 2828 -22 
Q 2503 -91 2169 -91 
Q 1331 -91 842 396 
Q 353 884 353 1716 
Q 353 2575 817 3079 
Q 1281 3584 2069 3584 
Q 2775 3584 3186 3129 
Q 3597 2675 3597 1894 
z
M 3022 2063 
Q 3016 2534 2758 2815 
Q 2500 3097 2075 3097 
Q 1594 3097 1305 2825 
Q 1016 2553 972 2059 
L 3022 2063 
z
" transform="scale(0.015625)"/>
     </defs>
     <use xlink:href="#DejaVuSans-63"/>
     <use xlink:href="#DejaVuSans-6f" x="54.980469"/>
     <use xlink:href="#DejaVuSans-72" x="116.162109"/>
     <use xlink:href="#DejaVuSans-65" x="155.025391"/>
     <use xlink:href="#DejaVuSans-31" x="216.548828"/>
    </g>
   </g>
  </g>
  <g id="axes_2">
   <g id="patch_11">
    <path d="M 180.4325 188.12 
L 299.155 188.12 
L 299.155 25.44 
L 180.4325 25.44 
z
" style="fill: #ffffff"/>
   </g>
   <g id="patch_12">
    <path d="M 180.4325 173.8855 
L 215.158831 173.8855 
L 215.158831 161.6845 
L 180.4325 161.6845 
z
" clip-path="url(#p2be680f3eb)" style="fill: #4682b4; opacity: 0.6"/>
   </g>
   <g id="patch_13">
    <path d="M 180.4325 133.2155 
L 211.745559 133.2155 
L 211.745559 121.0145 
L 180.4325 121.0145 
z
" clip-path="url(#p2be680f3eb)" style="fill: #4682b4; opacity: 0.6"/>
   </g>
   <g id="patch_14">
    <path d="M 180.4325 92.5455 
L 193.788781 92.5455 
L 193.788781 80.3445 
L 180.4325 80.3445 
z
" clip-path="url(#p2be680f3eb)" style="fill: #4682b4; opacity: 0.6"/>
   </g>
   <g id="patch_15">
    <path d="M 180.4325 51.8755 
L 249.439953 51.8755 
L 249.439953 39.6745 
L 180.4325 39.6745 
z
" clip-path="url(#p2be680f3eb)" style="fill: #4682b4; opacity: 0.6"/>
   </g>
   <g id="matplotlib.axis_3">
    <g id="xtick_3">
     <g id="line2d_8">
      <g>
       <use xlink:href="#m31b96793f4" x="180.4325" y="188.12" style="stroke: #000000; stroke-width: 0.8"/>
      </g>
     </g>
     <g id="text_8">
      <!-- 0 -->
      <g transform="translate(177.25125 202.718437) scale(0.1 -0.1)">
       <use xlink:href="#DejaVuSans-30"/>
      </g>
     </g>
    </g>
    <g id="xtick_4">
     <g id="line2d_9">
      <g>
       <use xlink:href="#m31b96793f4" x="254.634062" y="188.12" style="stroke: #000000; stroke-width: 0.8"/>
      </g>
     </g>
     <g id="text_9">
      <!-- 50 -->
      <g transform="translate(248.271562 202.718437) scale(0.1 -0.1)">
       <use xlink:href="#DejaVuSans-35"/>
       <use xlink:href="#DejaVuSans-30" x="63.623047"/>
      </g>
     </g>
    </g>
   </g>
   <g id="matplotlib.axis_4">
    <g id="ytick_5">
     <g id="line2d_10">
      <g>
       <use xlink:href="#m534fe0a444" x="180.4325" y="167.785" style="stroke: #000000; stroke-width: 0.8"/>
      </g>
     </g>
    </g>
    <g id="ytick_6">
     <g id="line2d_11">
      <g>
       <use xlink:href="#m534fe0a444" x="180.4325" y="127.115" style="stroke: #000000; stroke-width: 0.8"/>
      </g>
     </g>
    </g>
    <g id="ytick_7">
     <g id="line2d_12">
      <g>
       <use xlink:href="#m534fe0a444" x="180.4325" y="86.445" style="stroke: #000000; stroke-width: 0.8"/>
      </g>
     </g>
    </g>
    <g id="ytick_8">
     <g id="line2d_13">
      <g>
       <use xlink:href="#m534fe0a444" x="180.4325" y="45.775" style="stroke: #000000; stroke-width: 0.8"/>
      </g>
     </g>
    </g>
   </g>
   <g id="line2d_14">
    <path d="M 215.158831 167.785 
L 211.745559 127.115 
L 193.788781 86.445 
L 249.439953 45.775 
" clip-path="url(#p2be680f3eb)" style="fill: none; stroke: #000000; stroke-width: 2; stroke-linecap: square"/>
    <g clip-path="url(#p2be680f3eb)">
     <use xlink:href="#m65a56663ed" x="215.158831" y="167.785" style="stroke: #000000"/>
     <use xlink:href="#m65a56663ed" x="211.745559" y="127.115" style="stroke: #000000"/>
     <use xlink:href="#m65a56663ed" x="193.788781" y="86.445" style="stroke: #000000"/>
     <use xlink:href="#m65a56663ed" x="249.439953" y="45.775" style="stroke: #000000"/>
    </g>
   </g>
   <g id="patch_16">
    <path d="M 180.4325 188.12 
L 180.4325 25.44 
" style="fill: none; stroke: #000000; stroke-width: 0.8; stroke-linejoin: miter; stroke-linecap: square"/>
   </g>
   <g id="patch_17">
    <path d="M 299.155 188.12 
L 299.155 25.44 
" style="fill: none; stroke: #000000; stroke-width: 0.8; stroke-linejoin: miter; stroke-linecap: square"/>
   </g>
   <g id="patch_18">
    <path d="M 180.4325 188.12 
L 299.155 188.12 
" style="fill: none; stroke: #000000; stroke-width: 0.8; stroke-linejoin: miter; stroke-linecap: square"/>
   </g>
   <g id="patch_19">
    <path d="M 180.4325 25.44 
L 299.155 25.44 
" style="fill: none; stroke: #000000; stroke-width: 0.8; stroke-linejoin: miter; stroke-linecap: square"/>
   </g>
   <g id="text_10">
    <!-- core2 -->
    <g transform="translate(222.9825 19.44) scale(0.12 -0.12)">
     <defs>
      <path id="DejaVuSans-32" d="M 1228 531 
L 3431 531 
L 3431 0 
L 469 0 
L 469 531 
Q 828 903 1448 1529 
Q 2069 2156 2228 2338 
Q 2531 2678 2651 2914 
Q 2772 3150 2772 3378 
Q 2772 3750 2511 3984 
Q 2250 4219 1831 4219 
Q 1534 4219 1204 4116 
Q 875 4013 500 3803 
L 500 4441 
Q 881 4594 1212 4672 
Q 1544 4750 1819 4750 
Q 2544 4750 2975 4387 
Q 3406 4025 3406 3419 
Q 3406 3131 3298 2873 
Q 3191 2616 2906 2266 
Q 2828 2175 2409 1742 
Q 1991 1309 1228 531 
z
" transform="scale(0.015625)"/>
     </defs>
     <use xlink:href="#DejaVuSans-63"/>
     <use xlink:href="#DejaVuSans-6f" x="54.980469"/>
     <use xlink:href="#DejaVuSans-72" x="116.162109"/>
     <use xlink:href="#DejaVuSans-65" x="155.025391"/>
     <use xlink:href="#DejaVuSans-32" x="216.548828"/>
    </g>
   </g>
  </g>
  <g id="axes_3">
   <g id="patch_20">
    <path d="M 313.455 188.12 
L 432.1775 188.12 
L 432.1775 25.44 
L 313.455 25.44 
z
" style="fill: #ffffff"/>
   </g>
   <g id="patch_21">
    <path d="M 313.455 173.8855 
L 334.083034 173.8855 
L 334.083034 161.6845 
L 313.455 161.6845 
z
" clip-path="url(#pdd9648019e)" style="fill: #4682b4; opacity: 0.6"/>
   </g>
   <g id="patch_22">
    <path d="M 313.455 133.2155 
L 341.503191 133.2155 
L 341.503191 121.0145 
L 313.455 121.0145 
z
" clip-path="url(#pdd9648019e)" style="fill: #4682b4; opacity: 0.6"/>
   </g>
   <g id="patch_23">
    <path d="M 313.455 92.5455 
L 327.108087 92.5455 
L 327.108087 80.3445 
L 313.455 80.3445 
z
" clip-path="url(#pdd9648019e)" style="fill: #4682b4; opacity: 0.6"/>
   </g>
   <g id="patch_24">
    <path d="M 313.455 51.8755 
L 399.677216 51.8755 
L 399.677216 39.6745 
L 313.455 39.6745 
z
" clip-path="url(#pdd9648019e)" style="fill: #4682b4; opacity: 0.6"/>
   </g>
   <g id="matplotlib.axis_5">
    <g id="xtick_5">
     <g id="line2d_15">
      <g>
       <use xlink:href="#m31b96793f4" x="313.455" y="188.12" style="stroke: #000000; stroke-width: 0.8"/>
      </g>
     </g>
     <g id="text_11">
      <!-- 0 -->
      <g transform="translate(310.27375 202.718437) scale(0.1 -0.1)">
       <use xlink:href="#DejaVuSans-30"/>
      </g>
     </g>
    </g>
    <g id="xtick_6">
     <g id="line2d_16">
      <g>
       <use xlink:href="#m31b96793f4" x="387.656562" y="188.12" style="stroke: #000000; stroke-width: 0.8"/>
      </g>
     </g>
     <g id="text_12">
      <!-- 50 -->
      <g transform="translate(381.294062 202.718437) scale(0.1 -0.1)">
       <use xlink:href="#DejaVuSans-35"/>
       <use xlink:href="#DejaVuSans-30" x="63.623047"/>
      </g>
     </g>
    </g>
   </g>
   <g id="matplotlib.axis_6">
    <g id="ytick_9">
     <g id="line2d_17">
      <g>
       <use xlink:href="#m534fe0a444" x="313.455" y="167.785" style="stroke: #000000; stroke-width: 0.8"/>
      </g>
     </g>
    </g>
    <g id="ytick_10">
     <g id="line2d_18">
      <g>
       <use xlink:href="#m534fe0a444" x="313.455" y="127.115" style="stroke: #000000; stroke-width: 0.8"/>
      </g>
     </g>
    </g>
    <g id="ytick_11">
     <g id="line2d_19">
      <g>
       <use xlink:href="#m534fe0a444" x="313.455" y="86.445" style="stroke: #000000; stroke-width: 0.8"/>
      </g>
     </g>
    </g>
    <g id="ytick_12">
     <g id="line2d_20">
      <g>
       <use xlink:href="#m534fe0a444" x="313.455" y="45.775" style="stroke: #000000; stroke-width: 0.8"/>
      </g>
     </g>
    </g>
   </g>
   <g id="line2d_21">
    <path d="M 334.083034 167.785 
L 341.503191 127.115 
L 327.108087 86.445 
L 399.677216 45.775 
" clip-path="url(#pdd9648019e)" style="fill: none; stroke: #000000; stroke-width: 2; stroke-linecap: square"/>
    <g clip-path="url(#pdd9648019e)">
     <use xlink:href="#m65a56663ed" x="334.083034" y="167.785" style="stroke: #000000"/>
     <use xlink:href="#m65a56663ed" x="341.503191" y="127.115" style="stroke: #000000"/>
     <use xlink:href="#m65a56663ed" x="327.108087" y="86.445" style="stroke: #000000"/>
     <use xlink:href="#m65a56663ed" x="399.677216" y="45.775" style="stroke: #000000"/>
    </g>
   </g>
   <g id="patch_25">
    <path d="M 313.455 188.12 
L 313.455 25.44 
" style="fill: none; stroke: #000000; stroke-width: 0.8; stroke-linejoin: miter; stroke-linecap: square"/>
   </g>
   <g id="patch_26">
    <path d="M 432.1775 188.12 
L 432.1775 25.44 
" style="fill: none; stroke: #000000; stroke-width: 0.8; stroke-linejoin: miter; stroke-linecap: square"/>
   </g>
   <g id="patch_27">
    <path d="M 313.455 188.12 
L 432.1775 188.12 
" style="fill: none; stroke: #000000; stroke-width: 0.8; stroke-linejoin: miter; stroke-linecap: square"/>
   </g>
   <g id="patch_28">
    <path d="M 313.455 25.44 
L 432.1775 25.44 
" style="fill: none; stroke: #000000; stroke-width: 0.8; stroke-linejoin: miter; stroke-linecap: square"/>
   </g>
   <g id="text_13">
    <!-- core3 -->
    <g transform="translate(356.005 19.44) scale(0.12 -0.12)">
     <defs>
      <path id="DejaVuSans-33" d="M 2597 2516 
Q 3050 2419 3304 2112 
Q 3559 1806 3559 1356 
Q 3559 666 3084 287 
Q 2609 -91 1734 -91 
Q 1441 -91 1130 -33 
Q 819 25 488 141 
L 488 750 
Q 750 597 1062 519 
Q 1375 441 1716 441 
Q 2309 441 2620 675 
Q 2931 909 2931 1356 
Q 2931 1769 2642 2001 
Q 2353 2234 1838 2234 
L 1294 2234 
L 1294 2753 
L 1863 2753 
Q 2328 2753 2575 2939 
Q 2822 3125 2822 3475 
Q 2822 3834 2567 4026 
Q 2313 4219 1838 4219 
Q 1578 4219 1281 4162 
Q 984 4106 628 3988 
L 628 4550 
Q 988 4650 1302 4700 
Q 1616 4750 1894 4750 
Q 2613 4750 3031 4423 
Q 3450 4097 3450 3541 
Q 3450 3153 3228 2886 
Q 3006 2619 2597 2516 
z
" transform="scale(0.015625)"/>
     </defs>
     <use xlink:href="#DejaVuSans-63"/>
     <use xlink:href="#DejaVuSans-6f" x="54.980469"/>
     <use xlink:href="#DejaVuSans-72" x="116.162109"/>
     <use xlink:href="#DejaVuSans-65" x="155.025391"/>
     <use xlink:href="#DejaVuSans-33" x="216.548828"/>
    </g>
   </g>
  </g>
  <g id="axes_4">
   <g id="patch_29">
    <path d="M 446.4775 188.12 
L 565.2 188.12 
L 565.2 25.44 
L 446.4775 25.44 
z
" style="fill: #ffffff"/>
   </g>
   <g id="patch_30">
    <path d="M 446.4775 173.8855 
L 456.420509 173.8855 
L 456.420509 161.6845 
L 446.4775 161.6845 
z
" clip-path="url(#pba5e89a9e1)" style="fill: #4682b4; opacity: 0.6"/>
   </g>
   <g id="patch_31">
    <path d="M 446.4775 133.2155 
L 467.105534 133.2155 
L 467.105534 121.0145 
L 446.4775 121.0145 
z
" clip-path="url(#pba5e89a9e1)" style="fill: #4682b4; opacity: 0.6"/>
   </g>
   <g id="patch_32">
    <path d="M 446.4775 92.5455 
L 458.34975 92.5455 
L 458.34975 80.3445 
L 446.4775 80.3445 
z
" clip-path="url(#pba5e89a9e1)" style="fill: #4682b4; opacity: 0.6"/>
   </g>
   <g id="patch_33">
    <path d="M 446.4775 51.8755 
L 552.437331 51.8755 
L 552.437331 39.6745 
L 446.4775 39.6745 
z
" clip-path="url(#pba5e89a9e1)" style="fill: #4682b4; opacity: 0.6"/>
   </g>
   <g id="matplotlib.axis_7">
    <g id="xtick_7">
     <g id="line2d_22">
      <g>
       <use xlink:href="#m31b96793f4" x="446.4775" y="188.12" style="stroke: #000000; stroke-width: 0.8"/>
      </g>
     </g>
     <g id="text_14">
      <!-- 0 -->
      <g transform="translate(443.29625 202.718437) scale(0.1 -0.1)">
       <use xlink:href="#DejaVuSans-30"/>
      </g>
     </g>
    </g>
    <g id="xtick_8">
     <g id="line2d_23">
      <g>
       <use xlink:href="#m31b96793f4" x="520.679062" y="188.12" style="stroke: #000000; stroke-width: 0.8"/>
      </g>
     </g>
     <g id="text_15">
      <!-- 50 -->
      <g transform="translate(514.316563 202.718437) scale(0.1 -0.1)">
       <use xlink:href="#DejaVuSans-35"/>
       <use xlink:href="#DejaVuSans-30" x="63.623047"/>
      </g>
     </g>
    </g>
   </g>
   <g id="matplotlib.axis_8">
    <g id="ytick_13">
     <g id="line2d_24">
      <g>
       <use xlink:href="#m534fe0a444" x="446.4775" y="167.785" style="stroke: #000000; stroke-width: 0.8"/>
      </g>
     </g>
    </g>
    <g id="ytick_14">
     <g id="line2d_25">
      <g>
       <use xlink:href="#m534fe0a444" x="446.4775" y="127.115" style="stroke: #000000; stroke-width: 0.8"/>
      </g>
     </g>
    </g>
    <g id="ytick_15">
     <g id="line2d_26">
      <g>
       <use xlink:href="#m534fe0a444" x="446.4775" y="86.445" style="stroke: #000000; stroke-width: 0.8"/>
      </g>
     </g>
    </g>
    <g id="ytick_16">
     <g id="line2d_27">
      <g>
       <use xlink:href="#m534fe0a444" x="446.4775" y="45.775" style="stroke: #000000; stroke-width: 0.8"/>
      </g>
     </g>
    </g>
   </g>
   <g id="line2d_28">
    <path d="M 456.420509 167.785 
L 467.105534 127.115 
L 458.34975 86.445 
L 552.437331 45.775 
" clip-path="url(#pba5e89a9e1)" style="fill: none; stroke: #000000; stroke-width: 2; stroke-linecap: square"/>
    <g clip-path="url(#pba5e89a9e1)">
     <use xlink:href="#m65a56663ed" x="456.420509" y="167.785" style="stroke: #000000"/>
     <use xlink:href="#m65a56663ed" x="467.105534" y="127.115" style="stroke: #000000"/>
     <use xlink:href="#m65a56663ed" x="458.34975" y="86.445" style="stroke: #000000"/>
     <use xlink:href="#m65a56663ed" x="552.437331" y="45.775" style="stroke: #000000"/>
    </g>
   </g>
   <g id="patch_34">
    <path d="M 446.4775 188.12 
L 446.4775 25.44 
" style="fill: none; stroke: #000000; stroke-width: 0.8; stroke-linejoin: miter; stroke-linecap: square"/>
   </g>
   <g id="patch_35">
    <path d="M 565.2 188.12 
L 565.2 25.44 
" style="fill: none; stroke: #000000; stroke-width: 0.8; stroke-linejoin: miter; stroke-linecap: square"/>
   </g>
   <g id="patch_36">
    <path d="M 446.4775 188.12 
L 565.2 188.12 
" style="fill: none; stroke: #000000; stroke-width: 0.8; stroke-linejoin: miter; stroke-linecap: square"/>
   </g>
   <g id="patch_37">
    <path d="M 446.4775 25.44 
L 565.2 25.44 
" style="fill: none; stroke: #000000; stroke-width: 0.8; stroke-linejoin: miter; stroke-linecap: square"/>
   </g>
   <g id="text_16">
    <!-- core4 -->
    <g transform="translate(489.0275 19.44) scale(0.12 -0.12)">
     <defs>
      <path id="DejaVuSans-34" d="M 2419 4116 
L 825 1625 
L 2419 1625 
L 2419 4116 
z
M 2253 4666 
L 3047 4666 
L 3047 1625 
L 3713 1625 
L 3713 1100 
L 3047 1100 
L 3047 0 
L 2419 0 
L 2419 1100 
L 313 1100 
L 313 1709 
L 2253 4666 
z
" transform="scale(0.015625)"/>
     </defs>
     <use xlink:href="#DejaVuSans-63"/>
     <use xlink:href="#DejaVuSans-6f" x="54.980469"/>
     <use xlink:href="#DejaVuSans-72" x="116.162109"/>
     <use xlink:href="#DejaVuSans-65" x="155.025391"/>
     <use xlink:href="#DejaVuSans-34" x="216.548828"/>
    </g>
   </g>
  </g>
 </g>
 <defs>
  <clipPath id="pac5e680e8c">
   <rect x="47.41" y="25.44" width="118.7225" height="162.68"/>
  </clipPath>
  <clipPath id="p2be680f3eb">
   <rect x="180.4325" y="25.44" width="118.7225" height="162.68"/>
  </clipPath>
  <clipPath id="pdd9648019e">
   <rect x="313.455" y="25.44" width="118.7225" height="162.68"/>
  </clipPath>
  <clipPath id="pba5e89a9e1">
   <rect x="446.4775" y="25.44" width="118.7225" height="162.68"/>
  </clipPath>
 </defs>
</svg>
