<?xml version="1.0" encoding="utf-8" standalone="no"?>
<!DOCTYPE svg PUBLIC "-//W3C//DTD SVG 1.1//EN"
  "http://www.w3.org/Graphics/SVG/1.1/DTD/svg11.dtd">
<svg xmlns:xlink="http://www.w3.org/1999/xlink" width="576pt" height="216pt" viewBox="0 0 576 216" xmlns="http://www.w3.org/2000/svg" version="1.1">
 <metadata>
  <rdf:RDF xmlns:dc="http://purl.org/dc/elements/1.1/" xmlns:cc="http://creativecommons.org/ns#" xmlns:rdf="http://www.w3.org/1999/02/22-rdf-syntax-ns#">
   <cc:Work>
    <dc:type rdf:resource="http://purl.org/dc/dcmitype/StillImage"/>
    <dc:date>2025-07-27T09:50:47.660415</dc:date>
    <dc:format>image/svg+xml</dc:format>
    <dc:creator>
     <cc:Agent>
      <dc:title>Matplotlib v3.7.1, https://matplotlib.org/</dc:title>
     </cc:Agent>
    </dc:creator>
   </cc:Work>
  </rdf:RDF>
 </metadata>
 <defs>
  <style type="text/css">*{stroke-linejoin: round; stroke-linecap: butt}</style>
 </defs>
 <g id="figure_1">
  <g id="patch_1">
   <path d="M 0 216 
L 576 216 
L 576 0 
L 0 0 
z
" style="fill: #ffffff"/>
  </g>
  <g id="axes_1">
   <g id="patch_2">
    <path d="M 53.17 188.12 
L 170.4525 188.12 
L 170.4525 25.44 
L 53.17 25.44 
z
" style="fill: #ffffff"/>
   </g>
   <g id="patch_3">
    <path d="M 53.17 173.8855 
L 78.97215 173.8855 
L 78.97215 161.6845 
L 53.17 161.6845 
z
" clip-path="url(#pad0eb5929b)" style="fill: #4682b4; opacity: 0.6"/>
   </g>
   <g id="patch_4">
    <path d="M 53.17 133.2155 
L 76.919706 133.2155 
L 76.919706 121.0145 
L 53.17 121.0145 
z
" clip-path="url(#pad0eb5929b)" style="fill: #4682b4; opacity: 0.6"/>
   </g>
   <g id="patch_5">
    <path d="M 53.17 92.5455 
L 81.024594 92.5455 
L 81.024594 80.3445 
L 53.17 80.3445 
z
" clip-path="url(#pad0eb5929b)" style="fill: #4682b4; opacity: 0.6"/>
   </g>
   <g id="patch_6">
    <path d="M 53.17 51.8755 
L 122.366675 51.8755 
L 122.366675 39.6745 
L 53.17 39.6745 
z
" clip-path="url(#pad0eb5929b)" style="fill: #4682b4; opacity: 0.6"/>
   </g>
   <g id="matplotlib.axis_1">
    <g id="xtick_1">
     <g id="line2d_1">
      <defs>
       <path id="mbea00e5c25" d="M 0 0 
L 0 3.5 
" style="stroke: #000000; stroke-width: 0.8"/>
      </defs>
      <g>
       <use xlink:href="#mbea00e5c25" x="53.17" y="188.12" style="stroke: #000000; stroke-width: 0.8"/>
      </g>
     </g>
     <g id="text_1">
      <!-- 0 -->
      <g transform="translate(49.98875 202.718437) scale(0.1 -0.1)">
       <defs>
        <path id="DejaVuSans-30" d="M 2034 4250 
Q 1547 4250 1301 3770 
Q 1056 3291 1056 2328 
Q 1056 1369 1301 889 
Q 1547 409 2034 409 
Q 2525 409 2770 889 
Q 3016 1369 3016 2328 
Q 3016 3291 2770 3770 
Q 2525 4250 2034 4250 
z
M 2034 4750 
Q 2819 4750 3233 4129 
Q 3647 3509 3647 2328 
Q 3647 1150 3233 529 
Q 2819 -91 2034 -91 
Q 1250 -91 836 529 
Q 422 1150 422 2328 
Q 422 3509 836 4129 
Q 1250 4750 2034 4750 
z
" transform="scale(0.015625)"/>
       </defs>
       <use xlink:href="#DejaVuSans-30"/>
      </g>
     </g>
    </g>
    <g id="xtick_2">
     <g id="line2d_2">
      <g>
       <use xlink:href="#mbea00e5c25" x="126.471563" y="188.12" style="stroke: #000000; stroke-width: 0.8"/>
      </g>
     </g>
     <g id="text_2">
      <!-- 50 -->
      <g transform="translate(120.109063 202.718437) scale(0.1 -0.1)">
       <defs>
        <path id="DejaVuSans-35" d="M 691 4666 
L 3169 4666 
L 3169 4134 
L 1269 4134 
L 1269 2991 
Q 1406 3038 1543 3061 
Q 1681 3084 1819 3084 
Q 2600 3084 3056 2656 
Q 3513 2228 3513 1497 
Q 3513 744 3044 326 
Q 2575 -91 1722 -91 
Q 1428 -91 1123 -41 
Q 819 9 494 109 
L 494 744 
Q 775 591 1075 516 
Q 1375 441 1709 441 
Q 2250 441 2565 725 
Q 2881 1009 2881 1497 
Q 2881 1984 2565 2268 
Q 2250 2553 1709 2553 
Q 1456 2553 1204 2497 
Q 953 2441 691 2322 
L 691 4666 
z
" transform="scale(0.015625)"/>
       </defs>
       <use xlink:href="#DejaVuSans-35"/>
       <use xlink:href="#DejaVuSans-30" x="63.623047"/>
      </g>
     </g>
    </g>
   </g>
   <g id="matplotlib.axis_2">
    <g id="ytick_1">
     <g id="line2d_3">
      <defs>
       <path id="m69253b43fb" d="M 0 0 
L -3.5 0 
" style="stroke: #000000; stroke-width: 0.8"/>
      </defs>
      <g>
       <use xlink:href="#m69253b43fb" x="53.17" y="167.785" style="stroke: #000000; stroke-width: 0.8"/>
      </g>
     </g>
     <g id="text_3">
      <!-- &lt;=1.0 -->
      <g transform="translate(13.5075 171.584219) scale(0.1 -0.1)">
       <defs>
        <path id="DejaVuSans-3c" d="M 4684 3150 
L 1459 2003 
L 4684 863 
L 4684 294 
L 678 1747 
L 678 2266 
L 4684 3719 
L 4684 3150 
z
" transform="scale(0.015625)"/>
        <path id="DejaVuSans-3d" d="M 678 2906 
L 4684 2906 
L 4684 2381 
L 678 2381 
L 678 2906 
z
M 678 1631 
L 4684 1631 
L 4684 1100 
L 678 1100 
L 678 1631 
z
" transform="scale(0.015625)"/>
        <path id="DejaVuSans-31" d="M 794 531 
L 1825 531 
L 1825 4091 
L 703 3866 
L 703 4441 
L 1819 4666 
L 2450 4666 
L 2450 531 
L 3481 531 
L 3481 0 
L 794 0 
L 794 531 
z
" transform="scale(0.015625)"/>
        <path id="DejaVuSans-2e" d="M 684 794 
L 1344 794 
L 1344 0 
L 684 0 
L 684 794 
z
" transform="scale(0.015625)"/>
       </defs>
       <use xlink:href="#DejaVuSans-3c"/>
       <use xlink:href="#DejaVuSans-3d" x="83.789062"/>
       <use xlink:href="#DejaVuSans-31" x="167.578125"/>
       <use xlink:href="#DejaVuSans-2e" x="231.201172"/>
       <use xlink:href="#DejaVuSans-30" x="262.988281"/>
      </g>
     </g>
    </g>
    <g id="ytick_2">
     <g id="line2d_4">
      <g>
       <use xlink:href="#m69253b43fb" x="53.17" y="127.115" style="stroke: #000000; stroke-width: 0.8"/>
      </g>
     </g>
     <g id="text_4">
      <!-- 1.0-1.5 -->
      <g transform="translate(10.755938 130.914219) scale(0.1 -0.1)">
       <defs>
        <path id="DejaVuSans-2d" d="M 313 2009 
L 1997 2009 
L 1997 1497 
L 313 1497 
L 313 2009 
z
" transform="scale(0.015625)"/>
       </defs>
       <use xlink:href="#DejaVuSans-31"/>
       <use xlink:href="#DejaVuSans-2e" x="63.623047"/>
       <use xlink:href="#DejaVuSans-30" x="95.410156"/>
       <use xlink:href="#DejaVuSans-2d" x="159.033203"/>
       <use xlink:href="#DejaVuSans-31" x="195.117188"/>
       <use xlink:href="#DejaVuSans-2e" x="258.740234"/>
       <use xlink:href="#DejaVuSans-35" x="290.527344"/>
      </g>
     </g>
    </g>
    <g id="ytick_3">
     <g id="line2d_5">
      <g>
       <use xlink:href="#m69253b43fb" x="53.17" y="86.445" style="stroke: #000000; stroke-width: 0.8"/>
      </g>
     </g>
     <g id="text_5">
      <!-- 1.5-2.0 -->
      <g transform="translate(10.755938 90.244219) scale(0.1 -0.1)">
       <defs>
        <path id="DejaVuSans-32" d="M 1228 531 
L 3431 531 
L 3431 0 
L 469 0 
L 469 531 
Q 828 903 1448 1529 
Q 2069 2156 2228 2338 
Q 2531 2678 2651 2914 
Q 2772 3150 2772 3378 
Q 2772 3750 2511 3984 
Q 2250 4219 1831 4219 
Q 1534 4219 1204 4116 
Q 875 4013 500 3803 
L 500 4441 
Q 881 4594 1212 4672 
Q 1544 4750 1819 4750 
Q 2544 4750 2975 4387 
Q 3406 4025 3406 3419 
Q 3406 3131 3298 2873 
Q 3191 2616 2906 2266 
Q 2828 2175 2409 1742 
Q 1991 1309 1228 531 
z
" transform="scale(0.015625)"/>
       </defs>
       <use xlink:href="#DejaVuSans-31"/>
       <use xlink:href="#DejaVuSans-2e" x="63.623047"/>
       <use xlink:href="#DejaVuSans-35" x="95.410156"/>
       <use xlink:href="#DejaVuSans-2d" x="159.033203"/>
       <use xlink:href="#DejaVuSans-32" x="195.117188"/>
       <use xlink:href="#DejaVuSans-2e" x="258.740234"/>
       <use xlink:href="#DejaVuSans-30" x="290.527344"/>
      </g>
     </g>
    </g>
    <g id="ytick_4">
     <g id="line2d_6">
      <g>
       <use xlink:href="#m69253b43fb" x="53.17" y="45.775" style="stroke: #000000; stroke-width: 0.8"/>
      </g>
     </g>
     <g id="text_6">
      <!-- &gt;=2.0 -->
      <g transform="translate(13.5075 49.574219) scale(0.1 -0.1)">
       <defs>
        <path id="DejaVuSans-3e" d="M 678 3150 
L 678 3719 
L 4684 2266 
L 4684 1747 
L 678 294 
L 678 863 
L 3897 2003 
L 678 3150 
z
" transform="scale(0.015625)"/>
       </defs>
       <use xlink:href="#DejaVuSans-3e"/>
       <use xlink:href="#DejaVuSans-3d" x="83.789062"/>
       <use xlink:href="#DejaVuSans-32" x="167.578125"/>
       <use xlink:href="#DejaVuSans-2e" x="231.201172"/>
       <use xlink:href="#DejaVuSans-30" x="262.988281"/>
      </g>
     </g>
    </g>
   </g>
   <g id="line2d_7">
    <path d="M 78.97215 167.785 
L 76.919706 127.115 
L 81.024594 86.445 
L 122.366675 45.775 
" clip-path="url(#pad0eb5929b)" style="fill: none; stroke: #000000; stroke-width: 2; stroke-linecap: square"/>
    <defs>
     <path id="m809c7028ac" d="M 0 1.5 
C 0.397805 1.5 0.77937 1.341951 1.06066 1.06066 
C 1.341951 0.77937 1.5 0.397805 1.5 0 
C 1.5 -0.397805 1.341951 -0.77937 1.06066 -1.06066 
C 0.77937 -1.341951 0.397805 -1.5 0 -1.5 
C -0.397805 -1.5 -0.77937 -1.341951 -1.06066 -1.06066 
C -1.341951 -0.77937 -1.5 -0.397805 -1.5 0 
C -1.5 0.397805 -1.341951 0.77937 -1.06066 1.06066 
C -0.77937 1.341951 -0.397805 1.5 0 1.5 
z
" style="stroke: #000000"/>
    </defs>
    <g clip-path="url(#pad0eb5929b)">
     <use xlink:href="#m809c7028ac" x="78.97215" y="167.785" style="stroke: #000000"/>
     <use xlink:href="#m809c7028ac" x="76.919706" y="127.115" style="stroke: #000000"/>
     <use xlink:href="#m809c7028ac" x="81.024594" y="86.445" style="stroke: #000000"/>
     <use xlink:href="#m809c7028ac" x="122.366675" y="45.775" style="stroke: #000000"/>
    </g>
   </g>
   <g id="patch_7">
    <path d="M 53.17 188.12 
L 53.17 25.44 
" style="fill: none; stroke: #000000; stroke-width: 0.8; stroke-linejoin: miter; stroke-linecap: square"/>
   </g>
   <g id="patch_8">
    <path d="M 170.4525 188.12 
L 170.4525 25.44 
" style="fill: none; stroke: #000000; stroke-width: 0.8; stroke-linejoin: miter; stroke-linecap: square"/>
   </g>
   <g id="patch_9">
    <path d="M 53.17 188.12 
L 170.4525 188.12 
" style="fill: none; stroke: #000000; stroke-width: 0.8; stroke-linejoin: miter; stroke-linecap: square"/>
   </g>
   <g id="patch_10">
    <path d="M 53.17 25.44 
L 170.4525 25.44 
" style="fill: none; stroke: #000000; stroke-width: 0.8; stroke-linejoin: miter; stroke-linecap: square"/>
   </g>
   <g id="text_7">
    <!-- core1 -->
    <g transform="translate(95 19.44) scale(0.12 -0.12)">
     <defs>
      <path id="DejaVuSans-63" d="M 3122 3366 
L 3122 2828 
Q 2878 2963 2633 3030 
Q 2388 3097 2138 3097 
Q 1578 3097 1268 2742 
Q 959 2388 959 1747 
Q 959 1106 1268 751 
Q 1578 397 2138 397 
Q 2388 397 2633 464 
Q 2878 531 3122 666 
L 3122 134 
Q 2881 22 2623 -34 
Q 2366 -91 2075 -91 
Q 1284 -91 818 406 
Q 353 903 353 1747 
Q 353 2603 823 3093 
Q 1294 3584 2113 3584 
Q 2378 3584 2631 3529 
Q 2884 3475 3122 3366 
z
" transform="scale(0.015625)"/>
      <path id="DejaVuSans-6f" d="M 1959 3097 
Q 1497 3097 1228 2736 
Q 959 2375 959 1747 
Q 959 1119 1226 758 
Q 1494 397 1959 397 
Q 2419 397 2687 759 
Q 2956 1122 2956 1747 
Q 2956 2369 2687 2733 
Q 2419 3097 1959 3097 
z
M 1959 3584 
Q 2709 3584 3137 3096 
Q 3566 2609 3566 1747 
Q 3566 888 3137 398 
Q 2709 -91 1959 -91 
Q 1206 -91 779 398 
Q 353 888 353 1747 
Q 353 2609 779 3096 
Q 1206 3584 1959 3584 
z
" transform="scale(0.015625)"/>
      <path id="DejaVuSans-72" d="M 2631 2963 
Q 2534 3019 2420 3045 
Q 2306 3072 2169 3072 
Q 1681 3072 1420 2755 
Q 1159 2438 1159 1844 
L 1159 0 
L 581 0 
L 581 3500 
L 1159 3500 
L 1159 2956 
Q 1341 3275 1631 3429 
Q 1922 3584 2338 3584 
Q 2397 3584 2469 3576 
Q 2541 3569 2628 3553 
L 2631 2963 
z
" transform="scale(0.015625)"/>
      <path id="DejaVuSans-65" d="M 3597 1894 
L 3597 1613 
L 953 1613 
Q 991 1019 1311 708 
Q 1631 397 2203 397 
Q 2534 397 2845 478 
Q 3156 559 3463 722 
L 3463 178 
Q 3153 47 2828 -22 
Q 2503 -91 2169 -91 
Q 1331 -91 842 396 
Q 353 884 353 1716 
Q 353 2575 817 3079 
Q 1281 3584 2069 3584 
Q 2775 3584 3186 3129 
Q 3597 2675 3597 1894 
z
M 3022 2063 
Q 3016 2534 2758 2815 
Q 2500 3097 2075 3097 
Q 1594 3097 1305 2825 
Q 1016 2553 972 2059 
L 3022 2063 
z
" transform="scale(0.015625)"/>
     </defs>
     <use xlink:href="#DejaVuSans-63"/>
     <use xlink:href="#DejaVuSans-6f" x="54.980469"/>
     <use xlink:href="#DejaVuSans-72" x="116.162109"/>
     <use xlink:href="#DejaVuSans-65" x="155.025391"/>
     <use xlink:href="#DejaVuSans-31" x="216.548828"/>
    </g>
   </g>
  </g>
  <g id="axes_2">
   <g id="patch_11">
    <path d="M 184.7525 188.12 
L 302.035 188.12 
L 302.035 25.44 
L 184.7525 25.44 
z
" style="fill: #ffffff"/>
   </g>
   <g id="patch_12">
    <path d="M 184.7525 173.8855 
L 205.716747 173.8855 
L 205.716747 161.6845 
L 184.7525 161.6845 
z
" clip-path="url(#p09ab306f7e)" style="fill: #4682b4; opacity: 0.6"/>
   </g>
   <g id="patch_13">
    <path d="M 184.7525 133.2155 
L 212.020681 133.2155 
L 212.020681 121.0145 
L 184.7525 121.0145 
z
" clip-path="url(#p09ab306f7e)" style="fill: #4682b4; opacity: 0.6"/>
   </g>
   <g id="patch_14">
    <path d="M 184.7525 92.5455 
L 210.701253 92.5455 
L 210.701253 80.3445 
L 184.7525 80.3445 
z
" clip-path="url(#p09ab306f7e)" style="fill: #4682b4; opacity: 0.6"/>
   </g>
   <g id="patch_15">
    <path d="M 184.7525 51.8755 
L 257.027841 51.8755 
L 257.027841 39.6745 
L 184.7525 39.6745 
z
" clip-path="url(#p09ab306f7e)" style="fill: #4682b4; opacity: 0.6"/>
   </g>
   <g id="matplotlib.axis_3">
    <g id="xtick_3">
     <g id="line2d_8">
      <g>
       <use xlink:href="#mbea00e5c25" x="184.7525" y="188.12" style="stroke: #000000; stroke-width: 0.8"/>
      </g>
     </g>
     <g id="text_8">
      <!-- 0 -->
      <g transform="translate(181.57125 202.718437) scale(0.1 -0.1)">
       <use xlink:href="#DejaVuSans-30"/>
      </g>
     </g>
    </g>
    <g id="xtick_4">
     <g id="line2d_9">
      <g>
       <use xlink:href="#mbea00e5c25" x="258.054063" y="188.12" style="stroke: #000000; stroke-width: 0.8"/>
      </g>
     </g>
     <g id="text_9">
      <!-- 50 -->
      <g transform="translate(251.691563 202.718437) scale(0.1 -0.1)">
       <use xlink:href="#DejaVuSans-35"/>
       <use xlink:href="#DejaVuSans-30" x="63.623047"/>
      </g>
     </g>
    </g>
   </g>
   <g id="matplotlib.axis_4">
    <g id="ytick_5">
     <g id="line2d_10">
      <g>
       <use xlink:href="#m69253b43fb" x="184.7525" y="167.785" style="stroke: #000000; stroke-width: 0.8"/>
      </g>
     </g>
    </g>
    <g id="ytick_6">
     <g id="line2d_11">
      <g>
       <use xlink:href="#m69253b43fb" x="184.7525" y="127.115" style="stroke: #000000; stroke-width: 0.8"/>
      </g>
     </g>
    </g>
    <g id="ytick_7">
     <g id="line2d_12">
      <g>
       <use xlink:href="#m69253b43fb" x="184.7525" y="86.445" style="stroke: #000000; stroke-width: 0.8"/>
      </g>
     </g>
    </g>
    <g id="ytick_8">
     <g id="line2d_13">
      <g>
       <use xlink:href="#m69253b43fb" x="184.7525" y="45.775" style="stroke: #000000; stroke-width: 0.8"/>
      </g>
     </g>
    </g>
   </g>
   <g id="line2d_14">
    <path d="M 205.716747 167.785 
L 212.020681 127.115 
L 210.701253 86.445 
L 257.027841 45.775 
" clip-path="url(#p09ab306f7e)" style="fill: none; stroke: #000000; stroke-width: 2; stroke-linecap: square"/>
    <g clip-path="url(#p09ab306f7e)">
     <use xlink:href="#m809c7028ac" x="205.716747" y="167.785" style="stroke: #000000"/>
     <use xlink:href="#m809c7028ac" x="212.020681" y="127.115" style="stroke: #000000"/>
     <use xlink:href="#m809c7028ac" x="210.701253" y="86.445" style="stroke: #000000"/>
     <use xlink:href="#m809c7028ac" x="257.027841" y="45.775" style="stroke: #000000"/>
    </g>
   </g>
   <g id="patch_16">
    <path d="M 184.7525 188.12 
L 184.7525 25.44 
" style="fill: none; stroke: #000000; stroke-width: 0.8; stroke-linejoin: miter; stroke-linecap: square"/>
   </g>
   <g id="patch_17">
    <path d="M 302.035 188.12 
L 302.035 25.44 
" style="fill: none; stroke: #000000; stroke-width: 0.8; stroke-linejoin: miter; stroke-linecap: square"/>
   </g>
   <g id="patch_18">
    <path d="M 184.7525 188.12 
L 302.035 188.12 
" style="fill: none; stroke: #000000; stroke-width: 0.8; stroke-linejoin: miter; stroke-linecap: square"/>
   </g>
   <g id="patch_19">
    <path d="M 184.7525 25.44 
L 302.035 25.44 
" style="fill: none; stroke: #000000; stroke-width: 0.8; stroke-linejoin: miter; stroke-linecap: square"/>
   </g>
   <g id="text_10">
    <!-- core2 -->
    <g transform="translate(226.5825 19.44) scale(0.12 -0.12)">
     <use xlink:href="#DejaVuSans-63"/>
     <use xlink:href="#DejaVuSans-6f" x="54.980469"/>
     <use xlink:href="#DejaVuSans-72" x="116.162109"/>
     <use xlink:href="#DejaVuSans-65" x="155.025391"/>
     <use xlink:href="#DejaVuSans-32" x="216.548828"/>
    </g>
   </g>
  </g>
  <g id="axes_3">
   <g id="patch_20">
    <path d="M 316.335 188.12 
L 433.6175 188.12 
L 433.6175 25.44 
L 316.335 25.44 
z
" style="fill: #ffffff"/>
   </g>
   <g id="patch_21">
    <path d="M 316.335 173.8855 
L 324.251569 173.8855 
L 324.251569 161.6845 
L 316.335 161.6845 
z
" clip-path="url(#p93b631a231)" style="fill: #4682b4; opacity: 0.6"/>
   </g>
   <g id="patch_22">
    <path d="M 316.335 133.2155 
L 339.205087 133.2155 
L 339.205087 121.0145 
L 316.335 121.0145 
z
" clip-path="url(#p93b631a231)" style="fill: #4682b4; opacity: 0.6"/>
   </g>
   <g id="patch_23">
    <path d="M 316.335 92.5455 
L 340.964325 92.5455 
L 340.964325 80.3445 
L 316.335 80.3445 
z
" clip-path="url(#p93b631a231)" style="fill: #4682b4; opacity: 0.6"/>
   </g>
   <g id="patch_24">
    <path d="M 316.335 51.8755 
L 407.522144 51.8755 
L 407.522144 39.6745 
L 316.335 39.6745 
z
" clip-path="url(#p93b631a231)" style="fill: #4682b4; opacity: 0.6"/>
   </g>
   <g id="matplotlib.axis_5">
    <g id="xtick_5">
     <g id="line2d_15">
      <g>
       <use xlink:href="#mbea00e5c25" x="316.335" y="188.12" style="stroke: #000000; stroke-width: 0.8"/>
      </g>
     </g>
     <g id="text_11">
      <!-- 0 -->
      <g transform="translate(313.15375 202.718437) scale(0.1 -0.1)">
       <use xlink:href="#DejaVuSans-30"/>
      </g>
     </g>
    </g>
    <g id="xtick_6">
     <g id="line2d_16">
      <g>
       <use xlink:href="#mbea00e5c25" x="389.636562" y="188.12" style="stroke: #000000; stroke-width: 0.8"/>
      </g>
     </g>
     <g id="text_12">
      <!-- 50 -->
      <g transform="translate(383.274062 202.718437) scale(0.1 -0.1)">
       <use xlink:href="#DejaVuSans-35"/>
       <use xlink:href="#DejaVuSans-30" x="63.623047"/>
      </g>
     </g>
    </g>
   </g>
   <g id="matplotlib.axis_6">
    <g id="ytick_9">
     <g id="line2d_17">
      <g>
       <use xlink:href="#m69253b43fb" x="316.335" y="167.785" style="stroke: #000000; stroke-width: 0.8"/>
      </g>
     </g>
    </g>
    <g id="ytick_10">
     <g id="line2d_18">
      <g>
       <use xlink:href="#m69253b43fb" x="316.335" y="127.115" style="stroke: #000000; stroke-width: 0.8"/>
      </g>
     </g>
    </g>
    <g id="ytick_11">
     <g id="line2d_19">
      <g>
       <use xlink:href="#m69253b43fb" x="316.335" y="86.445" style="stroke: #000000; stroke-width: 0.8"/>
      </g>
     </g>
    </g>
    <g id="ytick_12">
     <g id="line2d_20">
      <g>
       <use xlink:href="#m69253b43fb" x="316.335" y="45.775" style="stroke: #000000; stroke-width: 0.8"/>
      </g>
     </g>
    </g>
   </g>
   <g id="line2d_21">
    <path d="M 324.251569 167.785 
L 339.205087 127.115 
L 340.964325 86.445 
L 407.522144 45.775 
" clip-path="url(#p93b631a231)" style="fill: none; stroke: #000000; stroke-width: 2; stroke-linecap: square"/>
    <g clip-path="url(#p93b631a231)">
     <use xlink:href="#m809c7028ac" x="324.251569" y="167.785" style="stroke: #000000"/>
     <use xlink:href="#m809c7028ac" x="339.205087" y="127.115" style="stroke: #000000"/>
     <use xlink:href="#m809c7028ac" x="340.964325" y="86.445" style="stroke: #000000"/>
     <use xlink:href="#m809c7028ac" x="407.522144" y="45.775" style="stroke: #000000"/>
    </g>
   </g>
   <g id="patch_25">
    <path d="M 316.335 188.12 
L 316.335 25.44 
" style="fill: none; stroke: #000000; stroke-width: 0.8; stroke-linejoin: miter; stroke-linecap: square"/>
   </g>
   <g id="patch_26">
    <path d="M 433.6175 188.12 
L 433.6175 25.44 
" style="fill: none; stroke: #000000; stroke-width: 0.8; stroke-linejoin: miter; stroke-linecap: square"/>
   </g>
   <g id="patch_27">
    <path d="M 316.335 188.12 
L 433.6175 188.12 
" style="fill: none; stroke: #000000; stroke-width: 0.8; stroke-linejoin: miter; stroke-linecap: square"/>
   </g>
   <g id="patch_28">
    <path d="M 316.335 25.44 
L 433.6175 25.44 
" style="fill: none; stroke: #000000; stroke-width: 0.8; stroke-linejoin: miter; stroke-linecap: square"/>
   </g>
   <g id="text_13">
    <!-- core3 -->
    <g transform="translate(358.165 19.44) scale(0.12 -0.12)">
     <defs>
      <path id="DejaVuSans-33" d="M 2597 2516 
Q 3050 2419 3304 2112 
Q 3559 1806 3559 1356 
Q 3559 666 3084 287 
Q 2609 -91 1734 -91 
Q 1441 -91 1130 -33 
Q 819 25 488 141 
L 488 750 
Q 750 597 1062 519 
Q 1375 441 1716 441 
Q 2309 441 2620 675 
Q 2931 909 2931 1356 
Q 2931 1769 2642 2001 
Q 2353 2234 1838 2234 
L 1294 2234 
L 1294 2753 
L 1863 2753 
Q 2328 2753 2575 2939 
Q 2822 3125 2822 3475 
Q 2822 3834 2567 4026 
Q 2313 4219 1838 4219 
Q 1578 4219 1281 4162 
Q 984 4106 628 3988 
L 628 4550 
Q 988 4650 1302 4700 
Q 1616 4750 1894 4750 
Q 2613 4750 3031 4423 
Q 3450 4097 3450 3541 
Q 3450 3153 3228 2886 
Q 3006 2619 2597 2516 
z
" transform="scale(0.015625)"/>
     </defs>
     <use xlink:href="#DejaVuSans-63"/>
     <use xlink:href="#DejaVuSans-6f" x="54.980469"/>
     <use xlink:href="#DejaVuSans-72" x="116.162109"/>
     <use xlink:href="#DejaVuSans-65" x="155.025391"/>
     <use xlink:href="#DejaVuSans-33" x="216.548828"/>
    </g>
   </g>
  </g>
  <g id="axes_4">
   <g id="patch_29">
    <path d="M 447.9175 188.12 
L 565.2 188.12 
L 565.2 25.44 
L 447.9175 25.44 
z
" style="fill: #ffffff"/>
   </g>
   <g id="patch_30">
    <path d="M 447.9175 173.8855 
L 452.168991 173.8855 
L 452.168991 161.6845 
L 447.9175 161.6845 
z
" clip-path="url(#p3ef59648bc)" style="fill: #4682b4; opacity: 0.6"/>
   </g>
   <g id="patch_31">
    <path d="M 447.9175 133.2155 
L 461.258384 133.2155 
L 461.258384 121.0145 
L 447.9175 121.0145 
z
" clip-path="url(#p3ef59648bc)" style="fill: #4682b4; opacity: 0.6"/>
   </g>
   <g id="patch_32">
    <path d="M 447.9175 92.5455 
L 468.735144 92.5455 
L 468.735144 80.3445 
L 447.9175 80.3445 
z
" clip-path="url(#p3ef59648bc)" style="fill: #4682b4; opacity: 0.6"/>
   </g>
   <g id="patch_33">
    <path d="M 447.9175 51.8755 
L 556.110606 51.8755 
L 556.110606 39.6745 
L 447.9175 39.6745 
z
" clip-path="url(#p3ef59648bc)" style="fill: #4682b4; opacity: 0.6"/>
   </g>
   <g id="matplotlib.axis_7">
    <g id="xtick_7">
     <g id="line2d_22">
      <g>
       <use xlink:href="#mbea00e5c25" x="447.9175" y="188.12" style="stroke: #000000; stroke-width: 0.8"/>
      </g>
     </g>
     <g id="text_14">
      <!-- 0 -->
      <g transform="translate(444.73625 202.718437) scale(0.1 -0.1)">
       <use xlink:href="#DejaVuSans-30"/>
      </g>
     </g>
    </g>
    <g id="xtick_8">
     <g id="line2d_23">
      <g>
       <use xlink:href="#mbea00e5c25" x="521.219063" y="188.12" style="stroke: #000000; stroke-width: 0.8"/>
      </g>
     </g>
     <g id="text_15">
      <!-- 50 -->
      <g transform="translate(514.856563 202.718437) scale(0.1 -0.1)">
       <use xlink:href="#DejaVuSans-35"/>
       <use xlink:href="#DejaVuSans-30" x="63.623047"/>
      </g>
     </g>
    </g>
   </g>
   <g id="matplotlib.axis_8">
    <g id="ytick_13">
     <g id="line2d_24">
      <g>
       <use xlink:href="#m69253b43fb" x="447.9175" y="167.785" style="stroke: #000000; stroke-width: 0.8"/>
      </g>
     </g>
    </g>
    <g id="ytick_14">
     <g id="line2d_25">
      <g>
       <use xlink:href="#m69253b43fb" x="447.9175" y="127.115" style="stroke: #000000; stroke-width: 0.8"/>
      </g>
     </g>
    </g>
    <g id="ytick_15">
     <g id="line2d_26">
      <g>
       <use xlink:href="#m69253b43fb" x="447.9175" y="86.445" style="stroke: #000000; stroke-width: 0.8"/>
      </g>
     </g>
    </g>
    <g id="ytick_16">
     <g id="line2d_27">
      <g>
       <use xlink:href="#m69253b43fb" x="447.9175" y="45.775" style="stroke: #000000; stroke-width: 0.8"/>
      </g>
     </g>
    </g>
   </g>
   <g id="line2d_28">
    <path d="M 452.168991 167.785 
L 461.258384 127.115 
L 468.735144 86.445 
L 556.110606 45.775 
" clip-path="url(#p3ef59648bc)" style="fill: none; stroke: #000000; stroke-width: 2; stroke-linecap: square"/>
    <g clip-path="url(#p3ef59648bc)">
     <use xlink:href="#m809c7028ac" x="452.168991" y="167.785" style="stroke: #000000"/>
     <use xlink:href="#m809c7028ac" x="461.258384" y="127.115" style="stroke: #000000"/>
     <use xlink:href="#m809c7028ac" x="468.735144" y="86.445" style="stroke: #000000"/>
     <use xlink:href="#m809c7028ac" x="556.110606" y="45.775" style="stroke: #000000"/>
    </g>
   </g>
   <g id="patch_34">
    <path d="M 447.9175 188.12 
L 447.9175 25.44 
" style="fill: none; stroke: #000000; stroke-width: 0.8; stroke-linejoin: miter; stroke-linecap: square"/>
   </g>
   <g id="patch_35">
    <path d="M 565.2 188.12 
L 565.2 25.44 
" style="fill: none; stroke: #000000; stroke-width: 0.8; stroke-linejoin: miter; stroke-linecap: square"/>
   </g>
   <g id="patch_36">
    <path d="M 447.9175 188.12 
L 565.2 188.12 
" style="fill: none; stroke: #000000; stroke-width: 0.8; stroke-linejoin: miter; stroke-linecap: square"/>
   </g>
   <g id="patch_37">
    <path d="M 447.9175 25.44 
L 565.2 25.44 
" style="fill: none; stroke: #000000; stroke-width: 0.8; stroke-linejoin: miter; stroke-linecap: square"/>
   </g>
   <g id="text_16">
    <!-- core4 -->
    <g transform="translate(489.7475 19.44) scale(0.12 -0.12)">
     <defs>
      <path id="DejaVuSans-34" d="M 2419 4116 
L 825 1625 
L 2419 1625 
L 2419 4116 
z
M 2253 4666 
L 3047 4666 
L 3047 1625 
L 3713 1625 
L 3713 1100 
L 3047 1100 
L 3047 0 
L 2419 0 
L 2419 1100 
L 313 1100 
L 313 1709 
L 2253 4666 
z
" transform="scale(0.015625)"/>
     </defs>
     <use xlink:href="#DejaVuSans-63"/>
     <use xlink:href="#DejaVuSans-6f" x="54.980469"/>
     <use xlink:href="#DejaVuSans-72" x="116.162109"/>
     <use xlink:href="#DejaVuSans-65" x="155.025391"/>
     <use xlink:href="#DejaVuSans-34" x="216.548828"/>
    </g>
   </g>
  </g>
 </g>
 <defs>
  <clipPath id="pad0eb5929b">
   <rect x="53.17" y="25.44" width="117.2825" height="162.68"/>
  </clipPath>
  <clipPath id="p09ab306f7e">
   <rect x="184.7525" y="25.44" width="117.2825" height="162.68"/>
  </clipPath>
  <clipPath id="p93b631a231">
   <rect x="316.335" y="25.44" width="117.2825" height="162.68"/>
  </clipPath>
  <clipPath id="p3ef59648bc">
   <rect x="447.9175" y="25.44" width="117.2825" height="162.68"/>
  </clipPath>
 </defs>
</svg>
