<?xml version="1.0" encoding="utf-8" standalone="no"?>
<!DOCTYPE svg PUBLIC "-//W3C//DTD SVG 1.1//EN"
  "http://www.w3.org/Graphics/SVG/1.1/DTD/svg11.dtd">
<svg xmlns:xlink="http://www.w3.org/1999/xlink" width="576pt" height="432pt" viewBox="0 0 576 432" xmlns="http://www.w3.org/2000/svg" version="1.1">
 <metadata>
  <rdf:RDF xmlns:dc="http://purl.org/dc/elements/1.1/" xmlns:cc="http://creativecommons.org/ns#" xmlns:rdf="http://www.w3.org/1999/02/22-rdf-syntax-ns#">
   <cc:Work>
    <dc:type rdf:resource="http://purl.org/dc/dcmitype/StillImage"/>
    <dc:date>2025-07-28T00:02:05.838375</dc:date>
    <dc:format>image/svg+xml</dc:format>
    <dc:creator>
     <cc:Agent>
      <dc:title>Matplotlib v3.7.1, https://matplotlib.org/</dc:title>
     </cc:Agent>
    </dc:creator>
   </cc:Work>
  </rdf:RDF>
 </metadata>
 <defs>
  <style type="text/css">*{stroke-linejoin: round; stroke-linecap: butt}</style>
 </defs>
 <g id="figure_1">
  <g id="patch_1">
   <path d="M 0 432 
L 576 432 
L 576 0 
L 0 0 
z
" style="fill: #ffffff"/>
  </g>
  <g id="axes_1">
   <g id="patch_2">
    <path d="M 59.79 379.14 
L 543.929653 379.14 
L 543.929653 15.12 
L 59.79 15.12 
z
" style="fill: #ffffff"/>
   </g>
   <g id="matplotlib.axis_1">
    <g id="xtick_1">
     <g id="text_1">
      <!-- 1 -->
      <g style="fill: #262626" transform="translate(146.047427 393.277812) scale(0.14 -0.14)">
       <defs>
        <path id="DejaVuSans-31" d="M 794 531 
L 1825 531 
L 1825 4091 
L 703 3866 
L 703 4441 
L 1819 4666 
L 2450 4666 
L 2450 531 
L 3481 531 
L 3481 0 
L 794 0 
L 794 531 
z
" transform="scale(0.015625)"/>
       </defs>
       <use xlink:href="#DejaVuSans-31"/>
      </g>
     </g>
    </g>
    <g id="xtick_2">
     <g id="text_2">
      <!-- 10 -->
      <g style="fill: #262626" transform="translate(272.422111 393.277812) scale(0.14 -0.14)">
       <defs>
        <path id="DejaVuSans-30" d="M 2034 4250 
Q 1547 4250 1301 3770 
Q 1056 3291 1056 2328 
Q 1056 1369 1301 889 
Q 1547 409 2034 409 
Q 2525 409 2770 889 
Q 3016 1369 3016 2328 
Q 3016 3291 2770 3770 
Q 2525 4250 2034 4250 
z
M 2034 4750 
Q 2819 4750 3233 4129 
Q 3647 3509 3647 2328 
Q 3647 1150 3233 529 
Q 2819 -91 2034 -91 
Q 1250 -91 836 529 
Q 422 1150 422 2328 
Q 422 3509 836 4129 
Q 1250 4750 2034 4750 
z
" transform="scale(0.015625)"/>
       </defs>
       <use xlink:href="#DejaVuSans-31"/>
       <use xlink:href="#DejaVuSans-30" x="63.623047"/>
      </g>
     </g>
    </g>
    <g id="xtick_3">
     <g id="text_3">
      <!-- 100 -->
      <g style="fill: #262626" transform="translate(398.796794 393.277812) scale(0.14 -0.14)">
       <use xlink:href="#DejaVuSans-31"/>
       <use xlink:href="#DejaVuSans-30" x="63.623047"/>
       <use xlink:href="#DejaVuSans-30" x="127.246094"/>
      </g>
     </g>
    </g>
    <g id="xtick_4">
     <g id="text_4">
      <!-- 1000 -->
      <g style="fill: #262626" transform="translate(525.171478 393.277812) scale(0.14 -0.14)">
       <use xlink:href="#DejaVuSans-31"/>
       <use xlink:href="#DejaVuSans-30" x="63.623047"/>
       <use xlink:href="#DejaVuSans-30" x="127.246094"/>
       <use xlink:href="#DejaVuSans-30" x="190.869141"/>
      </g>
     </g>
    </g>
    <g id="xtick_5"/>
    <g id="xtick_6"/>
    <g id="xtick_7"/>
    <g id="xtick_8"/>
    <g id="xtick_9"/>
    <g id="xtick_10"/>
    <g id="xtick_11"/>
    <g id="xtick_12"/>
    <g id="xtick_13"/>
    <g id="xtick_14"/>
    <g id="xtick_15"/>
    <g id="xtick_16"/>
    <g id="xtick_17"/>
    <g id="xtick_18"/>
    <g id="xtick_19"/>
    <g id="xtick_20"/>
    <g id="xtick_21"/>
    <g id="xtick_22"/>
    <g id="xtick_23"/>
    <g id="xtick_24"/>
    <g id="xtick_25"/>
    <g id="xtick_26"/>
    <g id="xtick_27"/>
    <g id="xtick_28"/>
    <g id="xtick_29"/>
    <g id="xtick_30"/>
    <g id="xtick_31"/>
    <g id="xtick_32"/>
    <g id="xtick_33"/>
    <g id="xtick_34"/>
    <g id="xtick_35"/>
    <g id="text_5">
     <!-- Sw (uM) -->
     <g style="fill: #262626" transform="translate(269.481076 412.346875) scale(0.16 -0.16)">
      <defs>
       <path id="DejaVuSans-53" d="M 3425 4513 
L 3425 3897 
Q 3066 4069 2747 4153 
Q 2428 4238 2131 4238 
Q 1616 4238 1336 4038 
Q 1056 3838 1056 3469 
Q 1056 3159 1242 3001 
Q 1428 2844 1947 2747 
L 2328 2669 
Q 3034 2534 3370 2195 
Q 3706 1856 3706 1288 
Q 3706 609 3251 259 
Q 2797 -91 1919 -91 
Q 1588 -91 1214 -16 
Q 841 59 441 206 
L 441 856 
Q 825 641 1194 531 
Q 1563 422 1919 422 
Q 2459 422 2753 634 
Q 3047 847 3047 1241 
Q 3047 1584 2836 1778 
Q 2625 1972 2144 2069 
L 1759 2144 
Q 1053 2284 737 2584 
Q 422 2884 422 3419 
Q 422 4038 858 4394 
Q 1294 4750 2059 4750 
Q 2388 4750 2728 4690 
Q 3069 4631 3425 4513 
z
" transform="scale(0.015625)"/>
       <path id="DejaVuSans-77" d="M 269 3500 
L 844 3500 
L 1563 769 
L 2278 3500 
L 2956 3500 
L 3675 769 
L 4391 3500 
L 4966 3500 
L 4050 0 
L 3372 0 
L 2619 2869 
L 1863 0 
L 1184 0 
L 269 3500 
z
" transform="scale(0.015625)"/>
       <path id="DejaVuSans-20" transform="scale(0.015625)"/>
       <path id="DejaVuSans-28" d="M 1984 4856 
Q 1566 4138 1362 3434 
Q 1159 2731 1159 2009 
Q 1159 1288 1364 580 
Q 1569 -128 1984 -844 
L 1484 -844 
Q 1016 -109 783 600 
Q 550 1309 550 2009 
Q 550 2706 781 3412 
Q 1013 4119 1484 4856 
L 1984 4856 
z
" transform="scale(0.015625)"/>
       <path id="DejaVuSans-75" d="M 544 1381 
L 544 3500 
L 1119 3500 
L 1119 1403 
Q 1119 906 1312 657 
Q 1506 409 1894 409 
Q 2359 409 2629 706 
Q 2900 1003 2900 1516 
L 2900 3500 
L 3475 3500 
L 3475 0 
L 2900 0 
L 2900 538 
Q 2691 219 2414 64 
Q 2138 -91 1772 -91 
Q 1169 -91 856 284 
Q 544 659 544 1381 
z
M 1991 3584 
L 1991 3584 
z
" transform="scale(0.015625)"/>
       <path id="DejaVuSans-4d" d="M 628 4666 
L 1569 4666 
L 2759 1491 
L 3956 4666 
L 4897 4666 
L 4897 0 
L 4281 0 
L 4281 4097 
L 3078 897 
L 2444 897 
L 1241 4097 
L 1241 0 
L 628 0 
L 628 4666 
z
" transform="scale(0.015625)"/>
       <path id="DejaVuSans-29" d="M 513 4856 
L 1013 4856 
Q 1481 4119 1714 3412 
Q 1947 2706 1947 2009 
Q 1947 1309 1714 600 
Q 1481 -109 1013 -844 
L 513 -844 
Q 928 -128 1133 580 
Q 1338 1288 1338 2009 
Q 1338 2731 1133 3434 
Q 928 4138 513 4856 
z
" transform="scale(0.015625)"/>
      </defs>
      <use xlink:href="#DejaVuSans-53"/>
      <use xlink:href="#DejaVuSans-77" x="63.476562"/>
      <use xlink:href="#DejaVuSans-20" x="145.263672"/>
      <use xlink:href="#DejaVuSans-28" x="177.050781"/>
      <use xlink:href="#DejaVuSans-75" x="216.064453"/>
      <use xlink:href="#DejaVuSans-4d" x="279.443359"/>
      <use xlink:href="#DejaVuSans-29" x="365.722656"/>
     </g>
    </g>
   </g>
   <g id="matplotlib.axis_2">
    <g id="ytick_1">
     <g id="text_6">
      <!-- −6 -->
      <g style="fill: #262626" transform="translate(35.650938 375.241426) scale(0.14 -0.14)">
       <defs>
        <path id="DejaVuSans-2212" d="M 678 2272 
L 4684 2272 
L 4684 1741 
L 678 1741 
L 678 2272 
z
" transform="scale(0.015625)"/>
        <path id="DejaVuSans-36" d="M 2113 2584 
Q 1688 2584 1439 2293 
Q 1191 2003 1191 1497 
Q 1191 994 1439 701 
Q 1688 409 2113 409 
Q 2538 409 2786 701 
Q 3034 994 3034 1497 
Q 3034 2003 2786 2293 
Q 2538 2584 2113 2584 
z
M 3366 4563 
L 3366 3988 
Q 3128 4100 2886 4159 
Q 2644 4219 2406 4219 
Q 1781 4219 1451 3797 
Q 1122 3375 1075 2522 
Q 1259 2794 1537 2939 
Q 1816 3084 2150 3084 
Q 2853 3084 3261 2657 
Q 3669 2231 3669 1497 
Q 3669 778 3244 343 
Q 2819 -91 2113 -91 
Q 1303 -91 875 529 
Q 447 1150 447 2328 
Q 447 3434 972 4092 
Q 1497 4750 2381 4750 
Q 2619 4750 2861 4703 
Q 3103 4656 3366 4563 
z
" transform="scale(0.015625)"/>
       </defs>
       <use xlink:href="#DejaVuSans-2212"/>
       <use xlink:href="#DejaVuSans-36" x="83.789062"/>
      </g>
     </g>
    </g>
    <g id="ytick_2">
     <g id="text_7">
      <!-- −5 -->
      <g style="fill: #262626" transform="translate(35.650938 318.8654) scale(0.14 -0.14)">
       <defs>
        <path id="DejaVuSans-35" d="M 691 4666 
L 3169 4666 
L 3169 4134 
L 1269 4134 
L 1269 2991 
Q 1406 3038 1543 3061 
Q 1681 3084 1819 3084 
Q 2600 3084 3056 2656 
Q 3513 2228 3513 1497 
Q 3513 744 3044 326 
Q 2575 -91 1722 -91 
Q 1428 -91 1123 -41 
Q 819 9 494 109 
L 494 744 
Q 775 591 1075 516 
Q 1375 441 1709 441 
Q 2250 441 2565 725 
Q 2881 1009 2881 1497 
Q 2881 1984 2565 2268 
Q 2250 2553 1709 2553 
Q 1456 2553 1204 2497 
Q 953 2441 691 2322 
L 691 4666 
z
" transform="scale(0.015625)"/>
       </defs>
       <use xlink:href="#DejaVuSans-2212"/>
       <use xlink:href="#DejaVuSans-35" x="83.789062"/>
      </g>
     </g>
    </g>
    <g id="ytick_3">
     <g id="text_8">
      <!-- −4 -->
      <g style="fill: #262626" transform="translate(35.650938 262.489374) scale(0.14 -0.14)">
       <defs>
        <path id="DejaVuSans-34" d="M 2419 4116 
L 825 1625 
L 2419 1625 
L 2419 4116 
z
M 2253 4666 
L 3047 4666 
L 3047 1625 
L 3713 1625 
L 3713 1100 
L 3047 1100 
L 3047 0 
L 2419 0 
L 2419 1100 
L 313 1100 
L 313 1709 
L 2253 4666 
z
" transform="scale(0.015625)"/>
       </defs>
       <use xlink:href="#DejaVuSans-2212"/>
       <use xlink:href="#DejaVuSans-34" x="83.789062"/>
      </g>
     </g>
    </g>
    <g id="ytick_4">
     <g id="text_9">
      <!-- −3 -->
      <g style="fill: #262626" transform="translate(35.650938 206.113348) scale(0.14 -0.14)">
       <defs>
        <path id="DejaVuSans-33" d="M 2597 2516 
Q 3050 2419 3304 2112 
Q 3559 1806 3559 1356 
Q 3559 666 3084 287 
Q 2609 -91 1734 -91 
Q 1441 -91 1130 -33 
Q 819 25 488 141 
L 488 750 
Q 750 597 1062 519 
Q 1375 441 1716 441 
Q 2309 441 2620 675 
Q 2931 909 2931 1356 
Q 2931 1769 2642 2001 
Q 2353 2234 1838 2234 
L 1294 2234 
L 1294 2753 
L 1863 2753 
Q 2328 2753 2575 2939 
Q 2822 3125 2822 3475 
Q 2822 3834 2567 4026 
Q 2313 4219 1838 4219 
Q 1578 4219 1281 4162 
Q 984 4106 628 3988 
L 628 4550 
Q 988 4650 1302 4700 
Q 1616 4750 1894 4750 
Q 2613 4750 3031 4423 
Q 3450 4097 3450 3541 
Q 3450 3153 3228 2886 
Q 3006 2619 2597 2516 
z
" transform="scale(0.015625)"/>
       </defs>
       <use xlink:href="#DejaVuSans-2212"/>
       <use xlink:href="#DejaVuSans-33" x="83.789062"/>
      </g>
     </g>
    </g>
    <g id="ytick_5">
     <g id="text_10">
      <!-- −2 -->
      <g style="fill: #262626" transform="translate(35.650938 149.737322) scale(0.14 -0.14)">
       <defs>
        <path id="DejaVuSans-32" d="M 1228 531 
L 3431 531 
L 3431 0 
L 469 0 
L 469 531 
Q 828 903 1448 1529 
Q 2069 2156 2228 2338 
Q 2531 2678 2651 2914 
Q 2772 3150 2772 3378 
Q 2772 3750 2511 3984 
Q 2250 4219 1831 4219 
Q 1534 4219 1204 4116 
Q 875 4013 500 3803 
L 500 4441 
Q 881 4594 1212 4672 
Q 1544 4750 1819 4750 
Q 2544 4750 2975 4387 
Q 3406 4025 3406 3419 
Q 3406 3131 3298 2873 
Q 3191 2616 2906 2266 
Q 2828 2175 2409 1742 
Q 1991 1309 1228 531 
z
" transform="scale(0.015625)"/>
       </defs>
       <use xlink:href="#DejaVuSans-2212"/>
       <use xlink:href="#DejaVuSans-32" x="83.789062"/>
      </g>
     </g>
    </g>
    <g id="ytick_6">
     <g id="text_11">
      <!-- −1 -->
      <g style="fill: #262626" transform="translate(35.650938 93.361296) scale(0.14 -0.14)">
       <use xlink:href="#DejaVuSans-2212"/>
       <use xlink:href="#DejaVuSans-31" x="83.789062"/>
      </g>
     </g>
    </g>
    <g id="ytick_7">
     <g id="text_12">
      <!-- 0 -->
      <g style="fill: #262626" transform="translate(47.3825 36.98527) scale(0.14 -0.14)">
       <use xlink:href="#DejaVuSans-30"/>
      </g>
     </g>
    </g>
    <g id="text_13">
     <!-- ΔΔG (kcal/mol) -->
     <g style="fill: #262626" transform="translate(28.323438 256.82) rotate(-90) scale(0.16 -0.16)">
      <defs>
       <path id="DejaVuSans-394" d="M 2188 4044 
L 906 525 
L 3472 525 
L 2188 4044 
z
M 50 0 
L 1831 4666 
L 2547 4666 
L 4325 0 
L 50 0 
z
" transform="scale(0.015625)"/>
       <path id="DejaVuSans-47" d="M 3809 666 
L 3809 1919 
L 2778 1919 
L 2778 2438 
L 4434 2438 
L 4434 434 
Q 4069 175 3628 42 
Q 3188 -91 2688 -91 
Q 1594 -91 976 548 
Q 359 1188 359 2328 
Q 359 3472 976 4111 
Q 1594 4750 2688 4750 
Q 3144 4750 3555 4637 
Q 3966 4525 4313 4306 
L 4313 3634 
Q 3963 3931 3569 4081 
Q 3175 4231 2741 4231 
Q 1884 4231 1454 3753 
Q 1025 3275 1025 2328 
Q 1025 1384 1454 906 
Q 1884 428 2741 428 
Q 3075 428 3337 486 
Q 3600 544 3809 666 
z
" transform="scale(0.015625)"/>
       <path id="DejaVuSans-6b" d="M 581 4863 
L 1159 4863 
L 1159 1991 
L 2875 3500 
L 3609 3500 
L 1753 1863 
L 3688 0 
L 2938 0 
L 1159 1709 
L 1159 0 
L 581 0 
L 581 4863 
z
" transform="scale(0.015625)"/>
       <path id="DejaVuSans-63" d="M 3122 3366 
L 3122 2828 
Q 2878 2963 2633 3030 
Q 2388 3097 2138 3097 
Q 1578 3097 1268 2742 
Q 959 2388 959 1747 
Q 959 1106 1268 751 
Q 1578 397 2138 397 
Q 2388 397 2633 464 
Q 2878 531 3122 666 
L 3122 134 
Q 2881 22 2623 -34 
Q 2366 -91 2075 -91 
Q 1284 -91 818 406 
Q 353 903 353 1747 
Q 353 2603 823 3093 
Q 1294 3584 2113 3584 
Q 2378 3584 2631 3529 
Q 2884 3475 3122 3366 
z
" transform="scale(0.015625)"/>
       <path id="DejaVuSans-61" d="M 2194 1759 
Q 1497 1759 1228 1600 
Q 959 1441 959 1056 
Q 959 750 1161 570 
Q 1363 391 1709 391 
Q 2188 391 2477 730 
Q 2766 1069 2766 1631 
L 2766 1759 
L 2194 1759 
z
M 3341 1997 
L 3341 0 
L 2766 0 
L 2766 531 
Q 2569 213 2275 61 
Q 1981 -91 1556 -91 
Q 1019 -91 701 211 
Q 384 513 384 1019 
Q 384 1609 779 1909 
Q 1175 2209 1959 2209 
L 2766 2209 
L 2766 2266 
Q 2766 2663 2505 2880 
Q 2244 3097 1772 3097 
Q 1472 3097 1187 3025 
Q 903 2953 641 2809 
L 641 3341 
Q 956 3463 1253 3523 
Q 1550 3584 1831 3584 
Q 2591 3584 2966 3190 
Q 3341 2797 3341 1997 
z
" transform="scale(0.015625)"/>
       <path id="DejaVuSans-6c" d="M 603 4863 
L 1178 4863 
L 1178 0 
L 603 0 
L 603 4863 
z
" transform="scale(0.015625)"/>
       <path id="DejaVuSans-2f" d="M 1625 4666 
L 2156 4666 
L 531 -594 
L 0 -594 
L 1625 4666 
z
" transform="scale(0.015625)"/>
       <path id="DejaVuSans-6d" d="M 3328 2828 
Q 3544 3216 3844 3400 
Q 4144 3584 4550 3584 
Q 5097 3584 5394 3201 
Q 5691 2819 5691 2113 
L 5691 0 
L 5113 0 
L 5113 2094 
Q 5113 2597 4934 2840 
Q 4756 3084 4391 3084 
Q 3944 3084 3684 2787 
Q 3425 2491 3425 1978 
L 3425 0 
L 2847 0 
L 2847 2094 
Q 2847 2600 2669 2842 
Q 2491 3084 2119 3084 
Q 1678 3084 1418 2786 
Q 1159 2488 1159 1978 
L 1159 0 
L 581 0 
L 581 3500 
L 1159 3500 
L 1159 2956 
Q 1356 3278 1631 3431 
Q 1906 3584 2284 3584 
Q 2666 3584 2933 3390 
Q 3200 3197 3328 2828 
z
" transform="scale(0.015625)"/>
       <path id="DejaVuSans-6f" d="M 1959 3097 
Q 1497 3097 1228 2736 
Q 959 2375 959 1747 
Q 959 1119 1226 758 
Q 1494 397 1959 397 
Q 2419 397 2687 759 
Q 2956 1122 2956 1747 
Q 2956 2369 2687 2733 
Q 2419 3097 1959 3097 
z
M 1959 3584 
Q 2709 3584 3137 3096 
Q 3566 2609 3566 1747 
Q 3566 888 3137 398 
Q 2709 -91 1959 -91 
Q 1206 -91 779 398 
Q 353 888 353 1747 
Q 353 2609 779 3096 
Q 1206 3584 1959 3584 
z
" transform="scale(0.015625)"/>
      </defs>
      <use xlink:href="#DejaVuSans-394"/>
      <use xlink:href="#DejaVuSans-394" x="68.408203"/>
      <use xlink:href="#DejaVuSans-47" x="136.816406"/>
      <use xlink:href="#DejaVuSans-20" x="214.306641"/>
      <use xlink:href="#DejaVuSans-28" x="246.09375"/>
      <use xlink:href="#DejaVuSans-6b" x="285.107422"/>
      <use xlink:href="#DejaVuSans-63" x="343.017578"/>
      <use xlink:href="#DejaVuSans-61" x="397.998047"/>
      <use xlink:href="#DejaVuSans-6c" x="459.277344"/>
      <use xlink:href="#DejaVuSans-2f" x="487.060547"/>
      <use xlink:href="#DejaVuSans-6d" x="520.751953"/>
      <use xlink:href="#DejaVuSans-6f" x="618.164062"/>
      <use xlink:href="#DejaVuSans-6c" x="679.345703"/>
      <use xlink:href="#DejaVuSans-29" x="707.128906"/>
     </g>
    </g>
   </g>
   <g id="PathCollection_1">
    <defs>
     <path id="m4ce181b83a" d="M 0 4.472136 
C 1.186024 4.472136 2.323632 4.000923 3.162278 3.162278 
C 4.000923 2.323632 4.472136 1.186024 4.472136 0 
C 4.472136 -1.186024 4.000923 -2.323632 3.162278 -3.162278 
C 2.323632 -4.000923 1.186024 -4.472136 0 -4.472136 
C -1.186024 -4.472136 -2.323632 -4.000923 -3.162278 -3.162278 
C -4.000923 -2.323632 -4.472136 -1.186024 -4.472136 0 
C -4.472136 1.186024 -4.000923 2.323632 -3.162278 3.162278 
C -2.323632 4.000923 -1.186024 4.472136 0 4.472136 
z
" style="stroke: #000000; stroke-opacity: 0.9; stroke-width: 0.715542"/>
    </defs>
    <g clip-path="url(#pbe9615bd5b)">
     <use xlink:href="#m4ce181b83a" x="410.393178" y="205.868284" style="fill: #2171b5; fill-opacity: 0.9; stroke: #000000; stroke-opacity: 0.9; stroke-width: 0.715542"/>
     <use xlink:href="#m4ce181b83a" x="311.288373" y="362.593636" style="fill: #2171b5; fill-opacity: 0.9; stroke: #000000; stroke-opacity: 0.9; stroke-width: 0.715542"/>
     <use xlink:href="#m4ce181b83a" x="299.815754" y="326.51298" style="fill: #2171b5; fill-opacity: 0.9; stroke: #000000; stroke-opacity: 0.9; stroke-width: 0.715542"/>
     <use xlink:href="#m4ce181b83a" x="258.891114" y="319.184096" style="fill: #2171b5; fill-opacity: 0.9; stroke: #000000; stroke-opacity: 0.9; stroke-width: 0.715542"/>
     <use xlink:href="#m4ce181b83a" x="321.940999" y="275.210796" style="fill: #2171b5; fill-opacity: 0.9; stroke: #000000; stroke-opacity: 0.9; stroke-width: 0.715542"/>
     <use xlink:href="#m4ce181b83a" x="331.490246" y="234.056297" style="fill: #2171b5; fill-opacity: 0.9; stroke: #000000; stroke-opacity: 0.9; stroke-width: 0.715542"/>
     <use xlink:href="#m4ce181b83a" x="368.905905" y="269.573193" style="fill: #2171b5; fill-opacity: 0.9; stroke: #000000; stroke-opacity: 0.9; stroke-width: 0.715542"/>
     <use xlink:href="#m4ce181b83a" x="311.288932" y="258.861748" style="fill: #2171b5; fill-opacity: 0.9; stroke: #000000; stroke-opacity: 0.9; stroke-width: 0.715542"/>
     <use xlink:href="#m4ce181b83a" x="293.498713" y="293.251124" style="fill: #2171b5; fill-opacity: 0.9; stroke: #000000; stroke-opacity: 0.9; stroke-width: 0.715542"/>
     <use xlink:href="#m4ce181b83a" x="270.38083" y="325.385459" style="fill: #2171b5; fill-opacity: 0.9; stroke: #000000; stroke-opacity: 0.9; stroke-width: 0.715542"/>
     <use xlink:href="#m4ce181b83a" x="299.815754" y="285.922241" style="fill: #2171b5; fill-opacity: 0.9; stroke: #000000; stroke-opacity: 0.9; stroke-width: 0.715542"/>
     <use xlink:href="#m4ce181b83a" x="354.322036" y="243.640221" style="fill: #2171b5; fill-opacity: 0.9; stroke: #000000; stroke-opacity: 0.9; stroke-width: 0.715542"/>
     <use xlink:href="#m4ce181b83a" x="310.712609" y="243.076461" style="fill: #2171b5; fill-opacity: 0.9; stroke: #000000; stroke-opacity: 0.9; stroke-width: 0.715542"/>
     <use xlink:href="#m4ce181b83a" x="238.504119" y="311.855213" style="fill: #2171b5; fill-opacity: 0.9; stroke: #000000; stroke-opacity: 0.9; stroke-width: 0.715542"/>
     <use xlink:href="#m4ce181b83a" x="308.657489" y="241.38518" style="fill: #2171b5; fill-opacity: 0.9; stroke: #000000; stroke-opacity: 0.9; stroke-width: 0.715542"/>
     <use xlink:href="#m4ce181b83a" x="362.688642" y="205.304524" style="fill: #2171b5; fill-opacity: 0.9; stroke: #000000; stroke-opacity: 0.9; stroke-width: 0.715542"/>
     <use xlink:href="#m4ce181b83a" x="299.815754" y="270.136954" style="fill: #2171b5; fill-opacity: 0.9; stroke: #000000; stroke-opacity: 0.9; stroke-width: 0.715542"/>
     <use xlink:href="#m4ce181b83a" x="293.498713" y="269.009433" style="fill: #2171b5; fill-opacity: 0.9; stroke: #000000; stroke-opacity: 0.9; stroke-width: 0.715542"/>
     <use xlink:href="#m4ce181b83a" x="387.302753" y="267.318152" style="fill: #2171b5; fill-opacity: 0.9; stroke: #000000; stroke-opacity: 0.9; stroke-width: 0.715542"/>
     <use xlink:href="#m4ce181b83a" x="410.339771" y="232.365016" style="fill: #2171b5; fill-opacity: 0.9; stroke: #000000; stroke-opacity: 0.9; stroke-width: 0.715542"/>
     <use xlink:href="#m4ce181b83a" x="280.179251" y="294.942405" style="fill: #2171b5; fill-opacity: 0.9; stroke: #000000; stroke-opacity: 0.9; stroke-width: 0.715542"/>
     <use xlink:href="#m4ce181b83a" x="357.312377" y="252.660386" style="fill: #2171b5; fill-opacity: 0.9; stroke: #000000; stroke-opacity: 0.9; stroke-width: 0.715542"/>
     <use xlink:href="#m4ce181b83a" x="264.33481" y="252.096625" style="fill: #2171b5; fill-opacity: 0.9; stroke: #000000; stroke-opacity: 0.9; stroke-width: 0.715542"/>
     <use xlink:href="#m4ce181b83a" x="315.483397" y="218.83477" style="fill: #2171b5; fill-opacity: 0.9; stroke: #000000; stroke-opacity: 0.9; stroke-width: 0.715542"/>
     <use xlink:href="#m4ce181b83a" x="301.359151" y="217.143489" style="fill: #2171b5; fill-opacity: 0.9; stroke: #000000; stroke-opacity: 0.9; stroke-width: 0.715542"/>
     <use xlink:href="#m4ce181b83a" x="249.345317" y="278.029597" style="fill: #2171b5; fill-opacity: 0.9; stroke: #000000; stroke-opacity: 0.9; stroke-width: 0.715542"/>
     <use xlink:href="#m4ce181b83a" x="447.04783" y="216.015969" style="fill: #2171b5; fill-opacity: 0.9; stroke: #000000; stroke-opacity: 0.9; stroke-width: 0.715542"/>
     <use xlink:href="#m4ce181b83a" x="444.747435" y="214.324688" style="fill: #2171b5; fill-opacity: 0.9; stroke: #000000; stroke-opacity: 0.9; stroke-width: 0.715542"/>
     <use xlink:href="#m4ce181b83a" x="163.720558" y="209.250846" style="fill: #2171b5; fill-opacity: 0.9; stroke: #000000; stroke-opacity: 0.9; stroke-width: 0.715542"/>
     <use xlink:href="#m4ce181b83a" x="212.964296" y="320.875377" style="fill: #2171b5; fill-opacity: 0.9; stroke: #000000; stroke-opacity: 0.9; stroke-width: 0.715542"/>
     <use xlink:href="#m4ce181b83a" x="357.144974" y="261.68055" style="fill: #2171b5; fill-opacity: 0.9; stroke: #000000; stroke-opacity: 0.9; stroke-width: 0.715542"/>
     <use xlink:href="#m4ce181b83a" x="273.887543" y="261.68055" style="fill: #2171b5; fill-opacity: 0.9; stroke: #000000; stroke-opacity: 0.9; stroke-width: 0.715542"/>
     <use xlink:href="#m4ce181b83a" x="303.682391" y="232.365016" style="fill: #2171b5; fill-opacity: 0.9; stroke: #000000; stroke-opacity: 0.9; stroke-width: 0.715542"/>
     <use xlink:href="#m4ce181b83a" x="214.15575" y="288.741042" style="fill: #2171b5; fill-opacity: 0.9; stroke: #000000; stroke-opacity: 0.9; stroke-width: 0.715542"/>
     <use xlink:href="#m4ce181b83a" x="266.315025" y="223.344852" style="fill: #2171b5; fill-opacity: 0.9; stroke: #000000; stroke-opacity: 0.9; stroke-width: 0.715542"/>
     <use xlink:href="#m4ce181b83a" x="249.779844" y="249.841584" style="fill: #2171b5; fill-opacity: 0.9; stroke: #000000; stroke-opacity: 0.9; stroke-width: 0.715542"/>
     <use xlink:href="#m4ce181b83a" x="225.661447" y="275.774556" style="fill: #2171b5; fill-opacity: 0.9; stroke: #000000; stroke-opacity: 0.9; stroke-width: 0.715542"/>
     <use xlink:href="#m4ce181b83a" x="172.260949" y="300.580008" style="fill: #2171b5; fill-opacity: 0.9; stroke: #000000; stroke-opacity: 0.9; stroke-width: 0.715542"/>
     <use xlink:href="#m4ce181b83a" x="249.779844" y="245.895263" style="fill: #2171b5; fill-opacity: 0.9; stroke: #000000; stroke-opacity: 0.9; stroke-width: 0.715542"/>
     <use xlink:href="#m4ce181b83a" x="214.15575" y="271.264474" style="fill: #2171b5; fill-opacity: 0.9; stroke: #000000; stroke-opacity: 0.9; stroke-width: 0.715542"/>
     <use xlink:href="#m4ce181b83a" x="233.38399" y="270.136954" style="fill: #2171b5; fill-opacity: 0.9; stroke: #000000; stroke-opacity: 0.9; stroke-width: 0.715542"/>
     <use xlink:href="#m4ce181b83a" x="335.879138" y="243.076461" style="fill: #2171b5; fill-opacity: 0.9; stroke: #000000; stroke-opacity: 0.9; stroke-width: 0.715542"/>
     <use xlink:href="#m4ce181b83a" x="180.953027" y="346.244589" style="fill: #2171b5; fill-opacity: 0.9; stroke: #000000; stroke-opacity: 0.9; stroke-width: 0.715542"/>
     <use xlink:href="#m4ce181b83a" x="284.719439" y="241.38518" style="fill: #2171b5; fill-opacity: 0.9; stroke: #000000; stroke-opacity: 0.9; stroke-width: 0.715542"/>
     <use xlink:href="#m4ce181b83a" x="249.779844" y="239.6939" style="fill: #2171b5; fill-opacity: 0.9; stroke: #000000; stroke-opacity: 0.9; stroke-width: 0.715542"/>
     <use xlink:href="#m4ce181b83a" x="389.753466" y="213.197167" style="fill: #2171b5; fill-opacity: 0.9; stroke: #000000; stroke-opacity: 0.9; stroke-width: 0.715542"/>
     <use xlink:href="#m4ce181b83a" x="354.86416" y="263.935591" style="fill: #2171b5; fill-opacity: 0.9; stroke: #000000; stroke-opacity: 0.9; stroke-width: 0.715542"/>
     <use xlink:href="#m4ce181b83a" x="325.143261" y="208.687085" style="fill: #2171b5; fill-opacity: 0.9; stroke: #000000; stroke-opacity: 0.9; stroke-width: 0.715542"/>
     <use xlink:href="#m4ce181b83a" x="261.956819" y="256.042947" style="fill: #2171b5; fill-opacity: 0.9; stroke: #000000; stroke-opacity: 0.9; stroke-width: 0.715542"/>
     <use xlink:href="#m4ce181b83a" x="424.68716" y="180.499072" style="fill: #2171b5; fill-opacity: 0.9; stroke: #000000; stroke-opacity: 0.9; stroke-width: 0.715542"/>
     <use xlink:href="#m4ce181b83a" x="255.323132" y="327.6405" style="fill: #2171b5; fill-opacity: 0.9; stroke: #000000; stroke-opacity: 0.9; stroke-width: 0.715542"/>
     <use xlink:href="#m4ce181b83a" x="449.830996" y="200.230681" style="fill: #2171b5; fill-opacity: 0.9; stroke: #000000; stroke-opacity: 0.9; stroke-width: 0.715542"/>
     <use xlink:href="#m4ce181b83a" x="315.083445" y="221.089811" style="fill: #2171b5; fill-opacity: 0.9; stroke: #000000; stroke-opacity: 0.9; stroke-width: 0.715542"/>
     <use xlink:href="#m4ce181b83a" x="313.710628" y="173.733949" style="fill: #2171b5; fill-opacity: 0.9; stroke: #000000; stroke-opacity: 0.9; stroke-width: 0.715542"/>
     <use xlink:href="#m4ce181b83a" x="155.827409" y="290.996083" style="fill: #2171b5; fill-opacity: 0.9; stroke: #000000; stroke-opacity: 0.9; stroke-width: 0.715542"/>
     <use xlink:href="#m4ce181b83a" x="373.474148" y="218.83477" style="fill: #2171b5; fill-opacity: 0.9; stroke: #000000; stroke-opacity: 0.9; stroke-width: 0.715542"/>
     <use xlink:href="#m4ce181b83a" x="310.288443" y="192.338038" style="fill: #2171b5; fill-opacity: 0.9; stroke: #000000; stroke-opacity: 0.9; stroke-width: 0.715542"/>
     <use xlink:href="#m4ce181b83a" x="182.616053" y="298.324967" style="fill: #2171b5; fill-opacity: 0.9; stroke: #000000; stroke-opacity: 0.9; stroke-width: 0.715542"/>
     <use xlink:href="#m4ce181b83a" x="192.372258" y="231.237496" style="fill: #2171b5; fill-opacity: 0.9; stroke: #000000; stroke-opacity: 0.9; stroke-width: 0.715542"/>
     <use xlink:href="#m4ce181b83a" x="286.069559" y="183.881634" style="fill: #2171b5; fill-opacity: 0.9; stroke: #000000; stroke-opacity: 0.9; stroke-width: 0.715542"/>
     <use xlink:href="#m4ce181b83a" x="445.771782" y="224.472373" style="fill: #2171b5; fill-opacity: 0.9; stroke: #000000; stroke-opacity: 0.9; stroke-width: 0.715542"/>
     <use xlink:href="#m4ce181b83a" x="376.582106" y="181.062833" style="fill: #2171b5; fill-opacity: 0.9; stroke: #000000; stroke-opacity: 0.9; stroke-width: 0.715542"/>
     <use xlink:href="#m4ce181b83a" x="268.280024" y="243.640221" style="fill: #2171b5; fill-opacity: 0.9; stroke: #000000; stroke-opacity: 0.9; stroke-width: 0.715542"/>
     <use xlink:href="#m4ce181b83a" x="243.43332" y="200.794442" style="fill: #2171b5; fill-opacity: 0.9; stroke: #000000; stroke-opacity: 0.9; stroke-width: 0.715542"/>
     <use xlink:href="#m4ce181b83a" x="521.923305" y="178.244031" style="fill: #2171b5; fill-opacity: 0.9; stroke: #000000; stroke-opacity: 0.9; stroke-width: 0.715542"/>
     <use xlink:href="#m4ce181b83a" x="338.241385" y="195.720599" style="fill: #2171b5; fill-opacity: 0.9; stroke: #000000; stroke-opacity: 0.9; stroke-width: 0.715542"/>
     <use xlink:href="#m4ce181b83a" x="225.225309" y="214.324688" style="fill: #2171b5; fill-opacity: 0.9; stroke: #000000; stroke-opacity: 0.9; stroke-width: 0.715542"/>
     <use xlink:href="#m4ce181b83a" x="81.796348" y="209.814606" style="fill: #2171b5; fill-opacity: 0.9; stroke: #000000; stroke-opacity: 0.9; stroke-width: 0.715542"/>
     <use xlink:href="#m4ce181b83a" x="225.225309" y="207.559565" style="fill: #2171b5; fill-opacity: 0.9; stroke: #000000; stroke-opacity: 0.9; stroke-width: 0.715542"/>
     <use xlink:href="#m4ce181b83a" x="339.224416" y="187.827956" style="fill: #2171b5; fill-opacity: 0.9; stroke: #000000; stroke-opacity: 0.9; stroke-width: 0.715542"/>
     <use xlink:href="#m4ce181b83a" x="410.854308" y="186.700435" style="fill: #2171b5; fill-opacity: 0.9; stroke: #000000; stroke-opacity: 0.9; stroke-width: 0.715542"/>
     <use xlink:href="#m4ce181b83a" x="250.903577" y="186.136675" style="fill: #2171b5; fill-opacity: 0.9; stroke: #000000; stroke-opacity: 0.9; stroke-width: 0.715542"/>
     <use xlink:href="#m4ce181b83a" x="496.964868" y="182.754113" style="fill: #2171b5; fill-opacity: 0.9; stroke: #000000; stroke-opacity: 0.9; stroke-width: 0.715542"/>
     <use xlink:href="#m4ce181b83a" x="280.011174" y="157.384902" style="fill: #2171b5; fill-opacity: 0.9; stroke: #000000; stroke-opacity: 0.9; stroke-width: 0.715542"/>
     <use xlink:href="#m4ce181b83a" x="164.11637" y="174.297709" style="fill: #2171b5; fill-opacity: 0.9; stroke: #000000; stroke-opacity: 0.9; stroke-width: 0.715542"/>
     <use xlink:href="#m4ce181b83a" x="370.489843" y="154.00234" style="fill: #2171b5; fill-opacity: 0.9; stroke: #000000; stroke-opacity: 0.9; stroke-width: 0.715542"/>
     <use xlink:href="#m4ce181b83a" x="295.859506" y="153.43858" style="fill: #2171b5; fill-opacity: 0.9; stroke: #000000; stroke-opacity: 0.9; stroke-width: 0.715542"/>
     <use xlink:href="#m4ce181b83a" x="407.49405" y="135.962012" style="fill: #2171b5; fill-opacity: 0.9; stroke: #000000; stroke-opacity: 0.9; stroke-width: 0.715542"/>
     <use xlink:href="#m4ce181b83a" x="315.273257" y="150.056018" style="fill: #2171b5; fill-opacity: 0.9; stroke: #000000; stroke-opacity: 0.9; stroke-width: 0.715542"/>
     <use xlink:href="#m4ce181b83a" x="363.981282" y="166.405066" style="fill: #2171b5; fill-opacity: 0.9; stroke: #000000; stroke-opacity: 0.9; stroke-width: 0.715542"/>
     <use xlink:href="#m4ce181b83a" x="187.172426" y="239.130139" style="fill: #2171b5; fill-opacity: 0.9; stroke: #000000; stroke-opacity: 0.9; stroke-width: 0.715542"/>
     <use xlink:href="#m4ce181b83a" x="214.15575" y="169.787627" style="fill: #2171b5; fill-opacity: 0.9; stroke: #000000; stroke-opacity: 0.9; stroke-width: 0.715542"/>
     <use xlink:href="#m4ce181b83a" x="257.115195" y="165.841306" style="fill: #2171b5; fill-opacity: 0.9; stroke: #000000; stroke-opacity: 0.9; stroke-width: 0.715542"/>
     <use xlink:href="#m4ce181b83a" x="190.011979" y="188.391716" style="fill: #2171b5; fill-opacity: 0.9; stroke: #000000; stroke-opacity: 0.9; stroke-width: 0.715542"/>
     <use xlink:href="#m4ce181b83a" x="440.08217" y="128.069368" style="fill: #2171b5; fill-opacity: 0.9; stroke: #000000; stroke-opacity: 0.9; stroke-width: 0.715542"/>
     <use xlink:href="#m4ce181b83a" x="351.980568" y="141.035854" style="fill: #2171b5; fill-opacity: 0.9; stroke: #000000; stroke-opacity: 0.9; stroke-width: 0.715542"/>
     <use xlink:href="#m4ce181b83a" x="163.47247" y="139.344573" style="fill: #2171b5; fill-opacity: 0.9; stroke: #000000; stroke-opacity: 0.9; stroke-width: 0.715542"/>
     <use xlink:href="#m4ce181b83a" x="186.290473" y="161.331223" style="fill: #2171b5; fill-opacity: 0.9; stroke: #000000; stroke-opacity: 0.9; stroke-width: 0.715542"/>
     <use xlink:href="#m4ce181b83a" x="321.278886" y="120.740485" style="fill: #2171b5; fill-opacity: 0.9; stroke: #000000; stroke-opacity: 0.9; stroke-width: 0.715542"/>
     <use xlink:href="#m4ce181b83a" x="389.267298" y="120.740485" style="fill: #2171b5; fill-opacity: 0.9; stroke: #000000; stroke-opacity: 0.9; stroke-width: 0.715542"/>
     <use xlink:href="#m4ce181b83a" x="92.550536" y="171.478908" style="fill: #2171b5; fill-opacity: 0.9; stroke: #000000; stroke-opacity: 0.9; stroke-width: 0.715542"/>
     <use xlink:href="#m4ce181b83a" x="445.059594" y="107.210239" style="fill: #2171b5; fill-opacity: 0.9; stroke: #000000; stroke-opacity: 0.9; stroke-width: 0.715542"/>
     <use xlink:href="#m4ce181b83a" x="310.38277" y="128.069368" style="fill: #2171b5; fill-opacity: 0.9; stroke: #000000; stroke-opacity: 0.9; stroke-width: 0.715542"/>
     <use xlink:href="#m4ce181b83a" x="417.032379" y="106.082718" style="fill: #2171b5; fill-opacity: 0.9; stroke: #000000; stroke-opacity: 0.9; stroke-width: 0.715542"/>
     <use xlink:href="#m4ce181b83a" x="186.290473" y="133.14321" style="fill: #2171b5; fill-opacity: 0.9; stroke: #000000; stroke-opacity: 0.9; stroke-width: 0.715542"/>
     <use xlink:href="#m4ce181b83a" x="262.924986" y="106.646478" style="fill: #2171b5; fill-opacity: 0.9; stroke: #000000; stroke-opacity: 0.9; stroke-width: 0.715542"/>
     <use xlink:href="#m4ce181b83a" x="414.622532" y="71.693342" style="fill: #2171b5; fill-opacity: 0.9; stroke: #000000; stroke-opacity: 0.9; stroke-width: 0.715542"/>
     <use xlink:href="#m4ce181b83a" x="441.436705" y="51.397973" style="fill: #2171b5; fill-opacity: 0.9; stroke: #000000; stroke-opacity: 0.9; stroke-width: 0.715542"/>
     <use xlink:href="#m4ce181b83a" x="435.720065" y="31.666364" style="fill: #2171b5; fill-opacity: 0.9; stroke: #000000; stroke-opacity: 0.9; stroke-width: 0.715542"/>
    </g>
   </g>
   <g id="PathCollection_2">
    <defs>
     <path id="m6bf6f20e5a" d="M -0 12.247449 
L 12.247449 0 
L 0 -12.247449 
L -12.247449 -0 
z
" style="stroke: #000000; stroke-width: 1.385641"/>
    </defs>
    <g clip-path="url(#pbe9615bd5b)">
     <use xlink:href="#m6bf6f20e5a" x="410.393178" y="205.868284" style="fill: #32cd32; stroke: #000000; stroke-width: 1.385641"/>
    </g>
   </g>
   <g id="PathCollection_3">
    <defs>
     <path id="ma76090caaf" d="M -6.123724 6.123724 
L 6.123724 6.123724 
L 6.123724 -6.123724 
L -6.123724 -6.123724 
z
" style="stroke: #000000; stroke-width: 0.979796"/>
    </defs>
    <g clip-path="url(#pbe9615bd5b)">
     <use xlink:href="#ma76090caaf" x="311.288373" y="362.593636" style="fill: #ffa500; stroke: #000000; stroke-width: 0.979796"/>
    </g>
   </g>
   <g id="PathCollection_4">
    <defs>
     <path id="mcd28f46e47" d="M -6.123724 6.123724 
L 6.123724 6.123724 
L 6.123724 -6.123724 
L -6.123724 -6.123724 
z
" style="stroke: #000000; stroke-width: 0.979796"/>
    </defs>
    <g clip-path="url(#pbe9615bd5b)">
     <use xlink:href="#mcd28f46e47" x="180.953027" y="346.244589" style="fill: #ff0000; stroke: #000000; stroke-width: 0.979796"/>
    </g>
   </g>
   <g id="patch_3">
    <path d="M 59.79 379.14 
L 59.79 15.12 
" style="fill: none; stroke: #262626; stroke-width: 2; stroke-linejoin: miter; stroke-linecap: square"/>
   </g>
   <g id="patch_4">
    <path d="M 543.929653 379.14 
L 543.929653 15.12 
" style="fill: none; stroke: #262626; stroke-width: 2; stroke-linejoin: miter; stroke-linecap: square"/>
   </g>
   <g id="patch_5">
    <path d="M 59.79 379.14 
L 543.929653 379.14 
" style="fill: none; stroke: #262626; stroke-width: 2; stroke-linejoin: miter; stroke-linecap: square"/>
   </g>
   <g id="patch_6">
    <path d="M 59.79 15.12 
L 543.929653 15.12 
" style="fill: none; stroke: #262626; stroke-width: 2; stroke-linejoin: miter; stroke-linecap: square"/>
   </g>
  </g>
 </g>
 <defs>
  <clipPath id="pbe9615bd5b">
   <rect x="59.79" y="15.12" width="484.139653" height="364.02"/>
  </clipPath>
 </defs>
</svg>
