<?xml version="1.0" encoding="utf-8" standalone="no"?>
<!DOCTYPE svg PUBLIC "-//W3C//DTD SVG 1.1//EN"
  "http://www.w3.org/Graphics/SVG/1.1/DTD/svg11.dtd">
<svg xmlns:xlink="http://www.w3.org/1999/xlink" width="576pt" height="432pt" viewBox="0 0 576 432" xmlns="http://www.w3.org/2000/svg" version="1.1">
 <metadata>
  <rdf:RDF xmlns:dc="http://purl.org/dc/elements/1.1/" xmlns:cc="http://creativecommons.org/ns#" xmlns:rdf="http://www.w3.org/1999/02/22-rdf-syntax-ns#">
   <cc:Work>
    <dc:type rdf:resource="http://purl.org/dc/dcmitype/StillImage"/>
    <dc:date>2025-07-28T00:02:06.887879</dc:date>
    <dc:format>image/svg+xml</dc:format>
    <dc:creator>
     <cc:Agent>
      <dc:title>Matplotlib v3.7.1, https://matplotlib.org/</dc:title>
     </cc:Agent>
    </dc:creator>
   </cc:Work>
  </rdf:RDF>
 </metadata>
 <defs>
  <style type="text/css">*{stroke-linejoin: round; stroke-linecap: butt}</style>
 </defs>
 <g id="figure_1">
  <g id="patch_1">
   <path d="M 0 432 
L 576 432 
L 576 0 
L 0 0 
z
" style="fill: #ffffff"/>
  </g>
  <g id="axes_1">
   <g id="patch_2">
    <path d="M 59.79 379.14 
L 560.88 379.14 
L 560.88 15.12 
L 59.79 15.12 
z
" style="fill: #ffffff"/>
   </g>
   <g id="matplotlib.axis_1">
    <g id="xtick_1">
     <g id="text_1">
      <!-- 0.5 -->
      <g style="fill: #262626" transform="translate(115.754098 393.277812) scale(0.14 -0.14)">
       <defs>
        <path id="DejaVuSans-30" d="M 2034 4250 
Q 1547 4250 1301 3770 
Q 1056 3291 1056 2328 
Q 1056 1369 1301 889 
Q 1547 409 2034 409 
Q 2525 409 2770 889 
Q 3016 1369 3016 2328 
Q 3016 3291 2770 3770 
Q 2525 4250 2034 4250 
z
M 2034 4750 
Q 2819 4750 3233 4129 
Q 3647 3509 3647 2328 
Q 3647 1150 3233 529 
Q 2819 -91 2034 -91 
Q 1250 -91 836 529 
Q 422 1150 422 2328 
Q 422 3509 836 4129 
Q 1250 4750 2034 4750 
z
" transform="scale(0.015625)"/>
        <path id="DejaVuSans-2e" d="M 684 794 
L 1344 794 
L 1344 0 
L 684 0 
L 684 794 
z
" transform="scale(0.015625)"/>
        <path id="DejaVuSans-35" d="M 691 4666 
L 3169 4666 
L 3169 4134 
L 1269 4134 
L 1269 2991 
Q 1406 3038 1543 3061 
Q 1681 3084 1819 3084 
Q 2600 3084 3056 2656 
Q 3513 2228 3513 1497 
Q 3513 744 3044 326 
Q 2575 -91 1722 -91 
Q 1428 -91 1123 -41 
Q 819 9 494 109 
L 494 744 
Q 775 591 1075 516 
Q 1375 441 1709 441 
Q 2250 441 2565 725 
Q 2881 1009 2881 1497 
Q 2881 1984 2565 2268 
Q 2250 2553 1709 2553 
Q 1456 2553 1204 2497 
Q 953 2441 691 2322 
L 691 4666 
z
" transform="scale(0.015625)"/>
       </defs>
       <use xlink:href="#DejaVuSans-30"/>
       <use xlink:href="#DejaVuSans-2e" x="63.623047"/>
       <use xlink:href="#DejaVuSans-35" x="95.410156"/>
      </g>
     </g>
    </g>
    <g id="xtick_2">
     <g id="text_2">
      <!-- 1.0 -->
      <g style="fill: #262626" transform="translate(219.684789 393.277812) scale(0.14 -0.14)">
       <defs>
        <path id="DejaVuSans-31" d="M 794 531 
L 1825 531 
L 1825 4091 
L 703 3866 
L 703 4441 
L 1819 4666 
L 2450 4666 
L 2450 531 
L 3481 531 
L 3481 0 
L 794 0 
L 794 531 
z
" transform="scale(0.015625)"/>
       </defs>
       <use xlink:href="#DejaVuSans-31"/>
       <use xlink:href="#DejaVuSans-2e" x="63.623047"/>
       <use xlink:href="#DejaVuSans-30" x="95.410156"/>
      </g>
     </g>
    </g>
    <g id="xtick_3">
     <g id="text_3">
      <!-- 1.5 -->
      <g style="fill: #262626" transform="translate(323.61548 393.277812) scale(0.14 -0.14)">
       <use xlink:href="#DejaVuSans-31"/>
       <use xlink:href="#DejaVuSans-2e" x="63.623047"/>
       <use xlink:href="#DejaVuSans-35" x="95.410156"/>
      </g>
     </g>
    </g>
    <g id="xtick_4">
     <g id="text_4">
      <!-- 2.0 -->
      <g style="fill: #262626" transform="translate(427.546171 393.277812) scale(0.14 -0.14)">
       <defs>
        <path id="DejaVuSans-32" d="M 1228 531 
L 3431 531 
L 3431 0 
L 469 0 
L 469 531 
Q 828 903 1448 1529 
Q 2069 2156 2228 2338 
Q 2531 2678 2651 2914 
Q 2772 3150 2772 3378 
Q 2772 3750 2511 3984 
Q 2250 4219 1831 4219 
Q 1534 4219 1204 4116 
Q 875 4013 500 3803 
L 500 4441 
Q 881 4594 1212 4672 
Q 1544 4750 1819 4750 
Q 2544 4750 2975 4387 
Q 3406 4025 3406 3419 
Q 3406 3131 3298 2873 
Q 3191 2616 2906 2266 
Q 2828 2175 2409 1742 
Q 1991 1309 1228 531 
z
" transform="scale(0.015625)"/>
       </defs>
       <use xlink:href="#DejaVuSans-32"/>
       <use xlink:href="#DejaVuSans-2e" x="63.623047"/>
       <use xlink:href="#DejaVuSans-30" x="95.410156"/>
      </g>
     </g>
    </g>
    <g id="xtick_5">
     <g id="text_5">
      <!-- 2.5 -->
      <g style="fill: #262626" transform="translate(531.476862 393.277812) scale(0.14 -0.14)">
       <use xlink:href="#DejaVuSans-32"/>
       <use xlink:href="#DejaVuSans-2e" x="63.623047"/>
       <use xlink:href="#DejaVuSans-35" x="95.410156"/>
      </g>
     </g>
    </g>
    <g id="text_6">
     <!-- MPO Score -->
     <g style="fill: #262626" transform="translate(267.365 412.346875) scale(0.16 -0.16)">
      <defs>
       <path id="DejaVuSans-4d" d="M 628 4666 
L 1569 4666 
L 2759 1491 
L 3956 4666 
L 4897 4666 
L 4897 0 
L 4281 0 
L 4281 4097 
L 3078 897 
L 2444 897 
L 1241 4097 
L 1241 0 
L 628 0 
L 628 4666 
z
" transform="scale(0.015625)"/>
       <path id="DejaVuSans-50" d="M 1259 4147 
L 1259 2394 
L 2053 2394 
Q 2494 2394 2734 2622 
Q 2975 2850 2975 3272 
Q 2975 3691 2734 3919 
Q 2494 4147 2053 4147 
L 1259 4147 
z
M 628 4666 
L 2053 4666 
Q 2838 4666 3239 4311 
Q 3641 3956 3641 3272 
Q 3641 2581 3239 2228 
Q 2838 1875 2053 1875 
L 1259 1875 
L 1259 0 
L 628 0 
L 628 4666 
z
" transform="scale(0.015625)"/>
       <path id="DejaVuSans-4f" d="M 2522 4238 
Q 1834 4238 1429 3725 
Q 1025 3213 1025 2328 
Q 1025 1447 1429 934 
Q 1834 422 2522 422 
Q 3209 422 3611 934 
Q 4013 1447 4013 2328 
Q 4013 3213 3611 3725 
Q 3209 4238 2522 4238 
z
M 2522 4750 
Q 3503 4750 4090 4092 
Q 4678 3434 4678 2328 
Q 4678 1225 4090 567 
Q 3503 -91 2522 -91 
Q 1538 -91 948 565 
Q 359 1222 359 2328 
Q 359 3434 948 4092 
Q 1538 4750 2522 4750 
z
" transform="scale(0.015625)"/>
       <path id="DejaVuSans-20" transform="scale(0.015625)"/>
       <path id="DejaVuSans-53" d="M 3425 4513 
L 3425 3897 
Q 3066 4069 2747 4153 
Q 2428 4238 2131 4238 
Q 1616 4238 1336 4038 
Q 1056 3838 1056 3469 
Q 1056 3159 1242 3001 
Q 1428 2844 1947 2747 
L 2328 2669 
Q 3034 2534 3370 2195 
Q 3706 1856 3706 1288 
Q 3706 609 3251 259 
Q 2797 -91 1919 -91 
Q 1588 -91 1214 -16 
Q 841 59 441 206 
L 441 856 
Q 825 641 1194 531 
Q 1563 422 1919 422 
Q 2459 422 2753 634 
Q 3047 847 3047 1241 
Q 3047 1584 2836 1778 
Q 2625 1972 2144 2069 
L 1759 2144 
Q 1053 2284 737 2584 
Q 422 2884 422 3419 
Q 422 4038 858 4394 
Q 1294 4750 2059 4750 
Q 2388 4750 2728 4690 
Q 3069 4631 3425 4513 
z
" transform="scale(0.015625)"/>
       <path id="DejaVuSans-63" d="M 3122 3366 
L 3122 2828 
Q 2878 2963 2633 3030 
Q 2388 3097 2138 3097 
Q 1578 3097 1268 2742 
Q 959 2388 959 1747 
Q 959 1106 1268 751 
Q 1578 397 2138 397 
Q 2388 397 2633 464 
Q 2878 531 3122 666 
L 3122 134 
Q 2881 22 2623 -34 
Q 2366 -91 2075 -91 
Q 1284 -91 818 406 
Q 353 903 353 1747 
Q 353 2603 823 3093 
Q 1294 3584 2113 3584 
Q 2378 3584 2631 3529 
Q 2884 3475 3122 3366 
z
" transform="scale(0.015625)"/>
       <path id="DejaVuSans-6f" d="M 1959 3097 
Q 1497 3097 1228 2736 
Q 959 2375 959 1747 
Q 959 1119 1226 758 
Q 1494 397 1959 397 
Q 2419 397 2687 759 
Q 2956 1122 2956 1747 
Q 2956 2369 2687 2733 
Q 2419 3097 1959 3097 
z
M 1959 3584 
Q 2709 3584 3137 3096 
Q 3566 2609 3566 1747 
Q 3566 888 3137 398 
Q 2709 -91 1959 -91 
Q 1206 -91 779 398 
Q 353 888 353 1747 
Q 353 2609 779 3096 
Q 1206 3584 1959 3584 
z
" transform="scale(0.015625)"/>
       <path id="DejaVuSans-72" d="M 2631 2963 
Q 2534 3019 2420 3045 
Q 2306 3072 2169 3072 
Q 1681 3072 1420 2755 
Q 1159 2438 1159 1844 
L 1159 0 
L 581 0 
L 581 3500 
L 1159 3500 
L 1159 2956 
Q 1341 3275 1631 3429 
Q 1922 3584 2338 3584 
Q 2397 3584 2469 3576 
Q 2541 3569 2628 3553 
L 2631 2963 
z
" transform="scale(0.015625)"/>
       <path id="DejaVuSans-65" d="M 3597 1894 
L 3597 1613 
L 953 1613 
Q 991 1019 1311 708 
Q 1631 397 2203 397 
Q 2534 397 2845 478 
Q 3156 559 3463 722 
L 3463 178 
Q 3153 47 2828 -22 
Q 2503 -91 2169 -91 
Q 1331 -91 842 396 
Q 353 884 353 1716 
Q 353 2575 817 3079 
Q 1281 3584 2069 3584 
Q 2775 3584 3186 3129 
Q 3597 2675 3597 1894 
z
M 3022 2063 
Q 3016 2534 2758 2815 
Q 2500 3097 2075 3097 
Q 1594 3097 1305 2825 
Q 1016 2553 972 2059 
L 3022 2063 
z
" transform="scale(0.015625)"/>
      </defs>
      <use xlink:href="#DejaVuSans-4d"/>
      <use xlink:href="#DejaVuSans-50" x="86.279297"/>
      <use xlink:href="#DejaVuSans-4f" x="146.582031"/>
      <use xlink:href="#DejaVuSans-20" x="225.292969"/>
      <use xlink:href="#DejaVuSans-53" x="257.080078"/>
      <use xlink:href="#DejaVuSans-63" x="320.556641"/>
      <use xlink:href="#DejaVuSans-6f" x="375.537109"/>
      <use xlink:href="#DejaVuSans-72" x="436.71875"/>
      <use xlink:href="#DejaVuSans-65" x="475.582031"/>
     </g>
    </g>
   </g>
   <g id="matplotlib.axis_2">
    <g id="ytick_1">
     <g id="text_7">
      <!-- −6 -->
      <g style="fill: #262626" transform="translate(35.650938 375.241426) scale(0.14 -0.14)">
       <defs>
        <path id="DejaVuSans-2212" d="M 678 2272 
L 4684 2272 
L 4684 1741 
L 678 1741 
L 678 2272 
z
" transform="scale(0.015625)"/>
        <path id="DejaVuSans-36" d="M 2113 2584 
Q 1688 2584 1439 2293 
Q 1191 2003 1191 1497 
Q 1191 994 1439 701 
Q 1688 409 2113 409 
Q 2538 409 2786 701 
Q 3034 994 3034 1497 
Q 3034 2003 2786 2293 
Q 2538 2584 2113 2584 
z
M 3366 4563 
L 3366 3988 
Q 3128 4100 2886 4159 
Q 2644 4219 2406 4219 
Q 1781 4219 1451 3797 
Q 1122 3375 1075 2522 
Q 1259 2794 1537 2939 
Q 1816 3084 2150 3084 
Q 2853 3084 3261 2657 
Q 3669 2231 3669 1497 
Q 3669 778 3244 343 
Q 2819 -91 2113 -91 
Q 1303 -91 875 529 
Q 447 1150 447 2328 
Q 447 3434 972 4092 
Q 1497 4750 2381 4750 
Q 2619 4750 2861 4703 
Q 3103 4656 3366 4563 
z
" transform="scale(0.015625)"/>
       </defs>
       <use xlink:href="#DejaVuSans-2212"/>
       <use xlink:href="#DejaVuSans-36" x="83.789062"/>
      </g>
     </g>
    </g>
    <g id="ytick_2">
     <g id="text_8">
      <!-- −5 -->
      <g style="fill: #262626" transform="translate(35.650938 318.8654) scale(0.14 -0.14)">
       <use xlink:href="#DejaVuSans-2212"/>
       <use xlink:href="#DejaVuSans-35" x="83.789062"/>
      </g>
     </g>
    </g>
    <g id="ytick_3">
     <g id="text_9">
      <!-- −4 -->
      <g style="fill: #262626" transform="translate(35.650938 262.489374) scale(0.14 -0.14)">
       <defs>
        <path id="DejaVuSans-34" d="M 2419 4116 
L 825 1625 
L 2419 1625 
L 2419 4116 
z
M 2253 4666 
L 3047 4666 
L 3047 1625 
L 3713 1625 
L 3713 1100 
L 3047 1100 
L 3047 0 
L 2419 0 
L 2419 1100 
L 313 1100 
L 313 1709 
L 2253 4666 
z
" transform="scale(0.015625)"/>
       </defs>
       <use xlink:href="#DejaVuSans-2212"/>
       <use xlink:href="#DejaVuSans-34" x="83.789062"/>
      </g>
     </g>
    </g>
    <g id="ytick_4">
     <g id="text_10">
      <!-- −3 -->
      <g style="fill: #262626" transform="translate(35.650938 206.113348) scale(0.14 -0.14)">
       <defs>
        <path id="DejaVuSans-33" d="M 2597 2516 
Q 3050 2419 3304 2112 
Q 3559 1806 3559 1356 
Q 3559 666 3084 287 
Q 2609 -91 1734 -91 
Q 1441 -91 1130 -33 
Q 819 25 488 141 
L 488 750 
Q 750 597 1062 519 
Q 1375 441 1716 441 
Q 2309 441 2620 675 
Q 2931 909 2931 1356 
Q 2931 1769 2642 2001 
Q 2353 2234 1838 2234 
L 1294 2234 
L 1294 2753 
L 1863 2753 
Q 2328 2753 2575 2939 
Q 2822 3125 2822 3475 
Q 2822 3834 2567 4026 
Q 2313 4219 1838 4219 
Q 1578 4219 1281 4162 
Q 984 4106 628 3988 
L 628 4550 
Q 988 4650 1302 4700 
Q 1616 4750 1894 4750 
Q 2613 4750 3031 4423 
Q 3450 4097 3450 3541 
Q 3450 3153 3228 2886 
Q 3006 2619 2597 2516 
z
" transform="scale(0.015625)"/>
       </defs>
       <use xlink:href="#DejaVuSans-2212"/>
       <use xlink:href="#DejaVuSans-33" x="83.789062"/>
      </g>
     </g>
    </g>
    <g id="ytick_5">
     <g id="text_11">
      <!-- −2 -->
      <g style="fill: #262626" transform="translate(35.650938 149.737322) scale(0.14 -0.14)">
       <use xlink:href="#DejaVuSans-2212"/>
       <use xlink:href="#DejaVuSans-32" x="83.789062"/>
      </g>
     </g>
    </g>
    <g id="ytick_6">
     <g id="text_12">
      <!-- −1 -->
      <g style="fill: #262626" transform="translate(35.650938 93.361296) scale(0.14 -0.14)">
       <use xlink:href="#DejaVuSans-2212"/>
       <use xlink:href="#DejaVuSans-31" x="83.789062"/>
      </g>
     </g>
    </g>
    <g id="ytick_7">
     <g id="text_13">
      <!-- 0 -->
      <g style="fill: #262626" transform="translate(47.3825 36.98527) scale(0.14 -0.14)">
       <use xlink:href="#DejaVuSans-30"/>
      </g>
     </g>
    </g>
    <g id="text_14">
     <!-- ΔΔG (kcal/mol) -->
     <g style="fill: #262626" transform="translate(28.323438 256.82) rotate(-90) scale(0.16 -0.16)">
      <defs>
       <path id="DejaVuSans-394" d="M 2188 4044 
L 906 525 
L 3472 525 
L 2188 4044 
z
M 50 0 
L 1831 4666 
L 2547 4666 
L 4325 0 
L 50 0 
z
" transform="scale(0.015625)"/>
       <path id="DejaVuSans-47" d="M 3809 666 
L 3809 1919 
L 2778 1919 
L 2778 2438 
L 4434 2438 
L 4434 434 
Q 4069 175 3628 42 
Q 3188 -91 2688 -91 
Q 1594 -91 976 548 
Q 359 1188 359 2328 
Q 359 3472 976 4111 
Q 1594 4750 2688 4750 
Q 3144 4750 3555 4637 
Q 3966 4525 4313 4306 
L 4313 3634 
Q 3963 3931 3569 4081 
Q 3175 4231 2741 4231 
Q 1884 4231 1454 3753 
Q 1025 3275 1025 2328 
Q 1025 1384 1454 906 
Q 1884 428 2741 428 
Q 3075 428 3337 486 
Q 3600 544 3809 666 
z
" transform="scale(0.015625)"/>
       <path id="DejaVuSans-28" d="M 1984 4856 
Q 1566 4138 1362 3434 
Q 1159 2731 1159 2009 
Q 1159 1288 1364 580 
Q 1569 -128 1984 -844 
L 1484 -844 
Q 1016 -109 783 600 
Q 550 1309 550 2009 
Q 550 2706 781 3412 
Q 1013 4119 1484 4856 
L 1984 4856 
z
" transform="scale(0.015625)"/>
       <path id="DejaVuSans-6b" d="M 581 4863 
L 1159 4863 
L 1159 1991 
L 2875 3500 
L 3609 3500 
L 1753 1863 
L 3688 0 
L 2938 0 
L 1159 1709 
L 1159 0 
L 581 0 
L 581 4863 
z
" transform="scale(0.015625)"/>
       <path id="DejaVuSans-61" d="M 2194 1759 
Q 1497 1759 1228 1600 
Q 959 1441 959 1056 
Q 959 750 1161 570 
Q 1363 391 1709 391 
Q 2188 391 2477 730 
Q 2766 1069 2766 1631 
L 2766 1759 
L 2194 1759 
z
M 3341 1997 
L 3341 0 
L 2766 0 
L 2766 531 
Q 2569 213 2275 61 
Q 1981 -91 1556 -91 
Q 1019 -91 701 211 
Q 384 513 384 1019 
Q 384 1609 779 1909 
Q 1175 2209 1959 2209 
L 2766 2209 
L 2766 2266 
Q 2766 2663 2505 2880 
Q 2244 3097 1772 3097 
Q 1472 3097 1187 3025 
Q 903 2953 641 2809 
L 641 3341 
Q 956 3463 1253 3523 
Q 1550 3584 1831 3584 
Q 2591 3584 2966 3190 
Q 3341 2797 3341 1997 
z
" transform="scale(0.015625)"/>
       <path id="DejaVuSans-6c" d="M 603 4863 
L 1178 4863 
L 1178 0 
L 603 0 
L 603 4863 
z
" transform="scale(0.015625)"/>
       <path id="DejaVuSans-2f" d="M 1625 4666 
L 2156 4666 
L 531 -594 
L 0 -594 
L 1625 4666 
z
" transform="scale(0.015625)"/>
       <path id="DejaVuSans-6d" d="M 3328 2828 
Q 3544 3216 3844 3400 
Q 4144 3584 4550 3584 
Q 5097 3584 5394 3201 
Q 5691 2819 5691 2113 
L 5691 0 
L 5113 0 
L 5113 2094 
Q 5113 2597 4934 2840 
Q 4756 3084 4391 3084 
Q 3944 3084 3684 2787 
Q 3425 2491 3425 1978 
L 3425 0 
L 2847 0 
L 2847 2094 
Q 2847 2600 2669 2842 
Q 2491 3084 2119 3084 
Q 1678 3084 1418 2786 
Q 1159 2488 1159 1978 
L 1159 0 
L 581 0 
L 581 3500 
L 1159 3500 
L 1159 2956 
Q 1356 3278 1631 3431 
Q 1906 3584 2284 3584 
Q 2666 3584 2933 3390 
Q 3200 3197 3328 2828 
z
" transform="scale(0.015625)"/>
       <path id="DejaVuSans-29" d="M 513 4856 
L 1013 4856 
Q 1481 4119 1714 3412 
Q 1947 2706 1947 2009 
Q 1947 1309 1714 600 
Q 1481 -109 1013 -844 
L 513 -844 
Q 928 -128 1133 580 
Q 1338 1288 1338 2009 
Q 1338 2731 1133 3434 
Q 928 4138 513 4856 
z
" transform="scale(0.015625)"/>
      </defs>
      <use xlink:href="#DejaVuSans-394"/>
      <use xlink:href="#DejaVuSans-394" x="68.408203"/>
      <use xlink:href="#DejaVuSans-47" x="136.816406"/>
      <use xlink:href="#DejaVuSans-20" x="214.306641"/>
      <use xlink:href="#DejaVuSans-28" x="246.09375"/>
      <use xlink:href="#DejaVuSans-6b" x="285.107422"/>
      <use xlink:href="#DejaVuSans-63" x="343.017578"/>
      <use xlink:href="#DejaVuSans-61" x="397.998047"/>
      <use xlink:href="#DejaVuSans-6c" x="459.277344"/>
      <use xlink:href="#DejaVuSans-2f" x="487.060547"/>
      <use xlink:href="#DejaVuSans-6d" x="520.751953"/>
      <use xlink:href="#DejaVuSans-6f" x="618.164062"/>
      <use xlink:href="#DejaVuSans-6c" x="679.345703"/>
      <use xlink:href="#DejaVuSans-29" x="707.128906"/>
     </g>
    </g>
   </g>
   <g id="PathCollection_1">
    <defs>
     <path id="md95b7d85fb" d="M 0 4.472136 
C 1.186024 4.472136 2.323632 4.000923 3.162278 3.162278 
C 4.000923 2.323632 4.472136 1.186024 4.472136 0 
C 4.472136 -1.186024 4.000923 -2.323632 3.162278 -3.162278 
C 2.323632 -4.000923 1.186024 -4.472136 0 -4.472136 
C -1.186024 -4.472136 -2.323632 -4.000923 -3.162278 -3.162278 
C -4.000923 -2.323632 -4.472136 -1.186024 -4.472136 0 
C -4.472136 1.186024 -4.000923 2.323632 -3.162278 3.162278 
C -2.323632 4.000923 -1.186024 4.472136 0 4.472136 
z
" style="stroke: #000000; stroke-opacity: 0.9; stroke-width: 0.715542"/>
    </defs>
    <g clip-path="url(#pb24db8862f)">
     <use xlink:href="#md95b7d85fb" x="514.382595" y="205.868284" style="fill: #2171b5; fill-opacity: 0.9; stroke: #000000; stroke-opacity: 0.9; stroke-width: 0.715542"/>
     <use xlink:href="#md95b7d85fb" x="297.449261" y="362.593636" style="fill: #2171b5; fill-opacity: 0.9; stroke: #000000; stroke-opacity: 0.9; stroke-width: 0.715542"/>
     <use xlink:href="#md95b7d85fb" x="315.431808" y="326.51298" style="fill: #2171b5; fill-opacity: 0.9; stroke: #000000; stroke-opacity: 0.9; stroke-width: 0.715542"/>
     <use xlink:href="#md95b7d85fb" x="317.846809" y="319.184096" style="fill: #2171b5; fill-opacity: 0.9; stroke: #000000; stroke-opacity: 0.9; stroke-width: 0.715542"/>
     <use xlink:href="#md95b7d85fb" x="373.124073" y="275.210796" style="fill: #2171b5; fill-opacity: 0.9; stroke: #000000; stroke-opacity: 0.9; stroke-width: 0.715542"/>
     <use xlink:href="#md95b7d85fb" x="385.210852" y="234.056297" style="fill: #2171b5; fill-opacity: 0.9; stroke: #000000; stroke-opacity: 0.9; stroke-width: 0.715542"/>
     <use xlink:href="#md95b7d85fb" x="469.884511" y="269.573193" style="fill: #2171b5; fill-opacity: 0.9; stroke: #000000; stroke-opacity: 0.9; stroke-width: 0.715542"/>
     <use xlink:href="#md95b7d85fb" x="310.311345" y="258.861748" style="fill: #2171b5; fill-opacity: 0.9; stroke: #000000; stroke-opacity: 0.9; stroke-width: 0.715542"/>
     <use xlink:href="#md95b7d85fb" x="298.009409" y="293.251124" style="fill: #2171b5; fill-opacity: 0.9; stroke: #000000; stroke-opacity: 0.9; stroke-width: 0.715542"/>
     <use xlink:href="#md95b7d85fb" x="268.10661" y="325.385459" style="fill: #2171b5; fill-opacity: 0.9; stroke: #000000; stroke-opacity: 0.9; stroke-width: 0.715542"/>
     <use xlink:href="#md95b7d85fb" x="315.431808" y="285.922241" style="fill: #2171b5; fill-opacity: 0.9; stroke: #000000; stroke-opacity: 0.9; stroke-width: 0.715542"/>
     <use xlink:href="#md95b7d85fb" x="432.015395" y="243.640221" style="fill: #2171b5; fill-opacity: 0.9; stroke: #000000; stroke-opacity: 0.9; stroke-width: 0.715542"/>
     <use xlink:href="#md95b7d85fb" x="316.812118" y="243.076461" style="fill: #2171b5; fill-opacity: 0.9; stroke: #000000; stroke-opacity: 0.9; stroke-width: 0.715542"/>
     <use xlink:href="#md95b7d85fb" x="274.863237" y="311.855213" style="fill: #2171b5; fill-opacity: 0.9; stroke: #000000; stroke-opacity: 0.9; stroke-width: 0.715542"/>
     <use xlink:href="#md95b7d85fb" x="316.513521" y="241.38518" style="fill: #2171b5; fill-opacity: 0.9; stroke: #000000; stroke-opacity: 0.9; stroke-width: 0.715542"/>
     <use xlink:href="#md95b7d85fb" x="439.849798" y="205.304524" style="fill: #2171b5; fill-opacity: 0.9; stroke: #000000; stroke-opacity: 0.9; stroke-width: 0.715542"/>
     <use xlink:href="#md95b7d85fb" x="315.431808" y="270.136954" style="fill: #2171b5; fill-opacity: 0.9; stroke: #000000; stroke-opacity: 0.9; stroke-width: 0.715542"/>
     <use xlink:href="#md95b7d85fb" x="298.009409" y="269.009433" style="fill: #2171b5; fill-opacity: 0.9; stroke: #000000; stroke-opacity: 0.9; stroke-width: 0.715542"/>
     <use xlink:href="#md95b7d85fb" x="495.563714" y="267.318152" style="fill: #2171b5; fill-opacity: 0.9; stroke: #000000; stroke-opacity: 0.9; stroke-width: 0.715542"/>
     <use xlink:href="#md95b7d85fb" x="506.164022" y="232.365016" style="fill: #2171b5; fill-opacity: 0.9; stroke: #000000; stroke-opacity: 0.9; stroke-width: 0.715542"/>
     <use xlink:href="#md95b7d85fb" x="249.246536" y="294.942405" style="fill: #2171b5; fill-opacity: 0.9; stroke: #000000; stroke-opacity: 0.9; stroke-width: 0.715542"/>
     <use xlink:href="#md95b7d85fb" x="434.174241" y="252.660386" style="fill: #2171b5; fill-opacity: 0.9; stroke: #000000; stroke-opacity: 0.9; stroke-width: 0.715542"/>
     <use xlink:href="#md95b7d85fb" x="366.963354" y="252.096625" style="fill: #2171b5; fill-opacity: 0.9; stroke: #000000; stroke-opacity: 0.9; stroke-width: 0.715542"/>
     <use xlink:href="#md95b7d85fb" x="399.83515" y="218.83477" style="fill: #2171b5; fill-opacity: 0.9; stroke: #000000; stroke-opacity: 0.9; stroke-width: 0.715542"/>
     <use xlink:href="#md95b7d85fb" x="333.775995" y="217.143489" style="fill: #2171b5; fill-opacity: 0.9; stroke: #000000; stroke-opacity: 0.9; stroke-width: 0.715542"/>
     <use xlink:href="#md95b7d85fb" x="196.242292" y="278.029597" style="fill: #2171b5; fill-opacity: 0.9; stroke: #000000; stroke-opacity: 0.9; stroke-width: 0.715542"/>
     <use xlink:href="#md95b7d85fb" x="499.011433" y="216.015969" style="fill: #2171b5; fill-opacity: 0.9; stroke: #000000; stroke-opacity: 0.9; stroke-width: 0.715542"/>
     <use xlink:href="#md95b7d85fb" x="538.103182" y="214.324688" style="fill: #2171b5; fill-opacity: 0.9; stroke: #000000; stroke-opacity: 0.9; stroke-width: 0.715542"/>
     <use xlink:href="#md95b7d85fb" x="301.651661" y="209.250846" style="fill: #2171b5; fill-opacity: 0.9; stroke: #000000; stroke-opacity: 0.9; stroke-width: 0.715542"/>
     <use xlink:href="#md95b7d85fb" x="210.873017" y="320.875377" style="fill: #2171b5; fill-opacity: 0.9; stroke: #000000; stroke-opacity: 0.9; stroke-width: 0.715542"/>
     <use xlink:href="#md95b7d85fb" x="450.315644" y="261.68055" style="fill: #2171b5; fill-opacity: 0.9; stroke: #000000; stroke-opacity: 0.9; stroke-width: 0.715542"/>
     <use xlink:href="#md95b7d85fb" x="191.961472" y="261.68055" style="fill: #2171b5; fill-opacity: 0.9; stroke: #000000; stroke-opacity: 0.9; stroke-width: 0.715542"/>
     <use xlink:href="#md95b7d85fb" x="297.430144" y="232.365016" style="fill: #2171b5; fill-opacity: 0.9; stroke: #000000; stroke-opacity: 0.9; stroke-width: 0.715542"/>
     <use xlink:href="#md95b7d85fb" x="311.316237" y="288.741042" style="fill: #2171b5; fill-opacity: 0.9; stroke: #000000; stroke-opacity: 0.9; stroke-width: 0.715542"/>
     <use xlink:href="#md95b7d85fb" x="228.382988" y="223.344852" style="fill: #2171b5; fill-opacity: 0.9; stroke: #000000; stroke-opacity: 0.9; stroke-width: 0.715542"/>
     <use xlink:href="#md95b7d85fb" x="281.242882" y="249.841584" style="fill: #2171b5; fill-opacity: 0.9; stroke: #000000; stroke-opacity: 0.9; stroke-width: 0.715542"/>
     <use xlink:href="#md95b7d85fb" x="238.391322" y="275.774556" style="fill: #2171b5; fill-opacity: 0.9; stroke: #000000; stroke-opacity: 0.9; stroke-width: 0.715542"/>
     <use xlink:href="#md95b7d85fb" x="241.346515" y="300.580008" style="fill: #2171b5; fill-opacity: 0.9; stroke: #000000; stroke-opacity: 0.9; stroke-width: 0.715542"/>
     <use xlink:href="#md95b7d85fb" x="281.242882" y="245.895263" style="fill: #2171b5; fill-opacity: 0.9; stroke: #000000; stroke-opacity: 0.9; stroke-width: 0.715542"/>
     <use xlink:href="#md95b7d85fb" x="311.316237" y="271.264474" style="fill: #2171b5; fill-opacity: 0.9; stroke: #000000; stroke-opacity: 0.9; stroke-width: 0.715542"/>
     <use xlink:href="#md95b7d85fb" x="256.944865" y="270.136954" style="fill: #2171b5; fill-opacity: 0.9; stroke: #000000; stroke-opacity: 0.9; stroke-width: 0.715542"/>
     <use xlink:href="#md95b7d85fb" x="390.800267" y="243.076461" style="fill: #2171b5; fill-opacity: 0.9; stroke: #000000; stroke-opacity: 0.9; stroke-width: 0.715542"/>
     <use xlink:href="#md95b7d85fb" x="280.581156" y="346.244589" style="fill: #2171b5; fill-opacity: 0.9; stroke: #000000; stroke-opacity: 0.9; stroke-width: 0.715542"/>
     <use xlink:href="#md95b7d85fb" x="223.24675" y="241.38518" style="fill: #2171b5; fill-opacity: 0.9; stroke: #000000; stroke-opacity: 0.9; stroke-width: 0.715542"/>
     <use xlink:href="#md95b7d85fb" x="281.242882" y="239.6939" style="fill: #2171b5; fill-opacity: 0.9; stroke: #000000; stroke-opacity: 0.9; stroke-width: 0.715542"/>
     <use xlink:href="#md95b7d85fb" x="492.969087" y="213.197167" style="fill: #2171b5; fill-opacity: 0.9; stroke: #000000; stroke-opacity: 0.9; stroke-width: 0.715542"/>
     <use xlink:href="#md95b7d85fb" x="388.171024" y="263.935591" style="fill: #2171b5; fill-opacity: 0.9; stroke: #000000; stroke-opacity: 0.9; stroke-width: 0.715542"/>
     <use xlink:href="#md95b7d85fb" x="294.990752" y="208.687085" style="fill: #2171b5; fill-opacity: 0.9; stroke: #000000; stroke-opacity: 0.9; stroke-width: 0.715542"/>
     <use xlink:href="#md95b7d85fb" x="114.537921" y="256.042947" style="fill: #2171b5; fill-opacity: 0.9; stroke: #000000; stroke-opacity: 0.9; stroke-width: 0.715542"/>
     <use xlink:href="#md95b7d85fb" x="497.465786" y="180.499072" style="fill: #2171b5; fill-opacity: 0.9; stroke: #000000; stroke-opacity: 0.9; stroke-width: 0.715542"/>
     <use xlink:href="#md95b7d85fb" x="164.827529" y="327.6405" style="fill: #2171b5; fill-opacity: 0.9; stroke: #000000; stroke-opacity: 0.9; stroke-width: 0.715542"/>
     <use xlink:href="#md95b7d85fb" x="509.99528" y="200.230681" style="fill: #2171b5; fill-opacity: 0.9; stroke: #000000; stroke-opacity: 0.9; stroke-width: 0.715542"/>
     <use xlink:href="#md95b7d85fb" x="375.104175" y="221.089811" style="fill: #2171b5; fill-opacity: 0.9; stroke: #000000; stroke-opacity: 0.9; stroke-width: 0.715542"/>
     <use xlink:href="#md95b7d85fb" x="367.939866" y="173.733949" style="fill: #2171b5; fill-opacity: 0.9; stroke: #000000; stroke-opacity: 0.9; stroke-width: 0.715542"/>
     <use xlink:href="#md95b7d85fb" x="256.745575" y="290.996083" style="fill: #2171b5; fill-opacity: 0.9; stroke: #000000; stroke-opacity: 0.9; stroke-width: 0.715542"/>
     <use xlink:href="#md95b7d85fb" x="397.982581" y="218.83477" style="fill: #2171b5; fill-opacity: 0.9; stroke: #000000; stroke-opacity: 0.9; stroke-width: 0.715542"/>
     <use xlink:href="#md95b7d85fb" x="384.929159" y="192.338038" style="fill: #2171b5; fill-opacity: 0.9; stroke: #000000; stroke-opacity: 0.9; stroke-width: 0.715542"/>
     <use xlink:href="#md95b7d85fb" x="82.566818" y="298.324967" style="fill: #2171b5; fill-opacity: 0.9; stroke: #000000; stroke-opacity: 0.9; stroke-width: 0.715542"/>
     <use xlink:href="#md95b7d85fb" x="333.533242" y="231.237496" style="fill: #2171b5; fill-opacity: 0.9; stroke: #000000; stroke-opacity: 0.9; stroke-width: 0.715542"/>
     <use xlink:href="#md95b7d85fb" x="317.823165" y="183.881634" style="fill: #2171b5; fill-opacity: 0.9; stroke: #000000; stroke-opacity: 0.9; stroke-width: 0.715542"/>
     <use xlink:href="#md95b7d85fb" x="524.881434" y="224.472373" style="fill: #2171b5; fill-opacity: 0.9; stroke: #000000; stroke-opacity: 0.9; stroke-width: 0.715542"/>
     <use xlink:href="#md95b7d85fb" x="482.564902" y="181.062833" style="fill: #2171b5; fill-opacity: 0.9; stroke: #000000; stroke-opacity: 0.9; stroke-width: 0.715542"/>
     <use xlink:href="#md95b7d85fb" x="328.150095" y="243.640221" style="fill: #2171b5; fill-opacity: 0.9; stroke: #000000; stroke-opacity: 0.9; stroke-width: 0.715542"/>
     <use xlink:href="#md95b7d85fb" x="171.235015" y="200.794442" style="fill: #2171b5; fill-opacity: 0.9; stroke: #000000; stroke-opacity: 0.9; stroke-width: 0.715542"/>
     <use xlink:href="#md95b7d85fb" x="479.645895" y="178.244031" style="fill: #2171b5; fill-opacity: 0.9; stroke: #000000; stroke-opacity: 0.9; stroke-width: 0.715542"/>
     <use xlink:href="#md95b7d85fb" x="419.880028" y="195.720599" style="fill: #2171b5; fill-opacity: 0.9; stroke: #000000; stroke-opacity: 0.9; stroke-width: 0.715542"/>
     <use xlink:href="#md95b7d85fb" x="282.399964" y="214.324688" style="fill: #2171b5; fill-opacity: 0.9; stroke: #000000; stroke-opacity: 0.9; stroke-width: 0.715542"/>
     <use xlink:href="#md95b7d85fb" x="319.217006" y="209.814606" style="fill: #2171b5; fill-opacity: 0.9; stroke: #000000; stroke-opacity: 0.9; stroke-width: 0.715542"/>
     <use xlink:href="#md95b7d85fb" x="282.399964" y="207.559565" style="fill: #2171b5; fill-opacity: 0.9; stroke: #000000; stroke-opacity: 0.9; stroke-width: 0.715542"/>
     <use xlink:href="#md95b7d85fb" x="379.840452" y="187.827956" style="fill: #2171b5; fill-opacity: 0.9; stroke: #000000; stroke-opacity: 0.9; stroke-width: 0.715542"/>
     <use xlink:href="#md95b7d85fb" x="528.103487" y="186.700435" style="fill: #2171b5; fill-opacity: 0.9; stroke: #000000; stroke-opacity: 0.9; stroke-width: 0.715542"/>
     <use xlink:href="#md95b7d85fb" x="277.583736" y="186.136675" style="fill: #2171b5; fill-opacity: 0.9; stroke: #000000; stroke-opacity: 0.9; stroke-width: 0.715542"/>
     <use xlink:href="#md95b7d85fb" x="525.86607" y="182.754113" style="fill: #2171b5; fill-opacity: 0.9; stroke: #000000; stroke-opacity: 0.9; stroke-width: 0.715542"/>
     <use xlink:href="#md95b7d85fb" x="266.107409" y="157.384902" style="fill: #2171b5; fill-opacity: 0.9; stroke: #000000; stroke-opacity: 0.9; stroke-width: 0.715542"/>
     <use xlink:href="#md95b7d85fb" x="258.465556" y="174.297709" style="fill: #2171b5; fill-opacity: 0.9; stroke: #000000; stroke-opacity: 0.9; stroke-width: 0.715542"/>
     <use xlink:href="#md95b7d85fb" x="464.468412" y="154.00234" style="fill: #2171b5; fill-opacity: 0.9; stroke: #000000; stroke-opacity: 0.9; stroke-width: 0.715542"/>
     <use xlink:href="#md95b7d85fb" x="343.802043" y="153.43858" style="fill: #2171b5; fill-opacity: 0.9; stroke: #000000; stroke-opacity: 0.9; stroke-width: 0.715542"/>
     <use xlink:href="#md95b7d85fb" x="500.970395" y="135.962012" style="fill: #2171b5; fill-opacity: 0.9; stroke: #000000; stroke-opacity: 0.9; stroke-width: 0.715542"/>
     <use xlink:href="#md95b7d85fb" x="365.761113" y="150.056018" style="fill: #2171b5; fill-opacity: 0.9; stroke: #000000; stroke-opacity: 0.9; stroke-width: 0.715542"/>
     <use xlink:href="#md95b7d85fb" x="445.174886" y="166.405066" style="fill: #2171b5; fill-opacity: 0.9; stroke: #000000; stroke-opacity: 0.9; stroke-width: 0.715542"/>
     <use xlink:href="#md95b7d85fb" x="197.917419" y="239.130139" style="fill: #2171b5; fill-opacity: 0.9; stroke: #000000; stroke-opacity: 0.9; stroke-width: 0.715542"/>
     <use xlink:href="#md95b7d85fb" x="311.316237" y="169.787627" style="fill: #2171b5; fill-opacity: 0.9; stroke: #000000; stroke-opacity: 0.9; stroke-width: 0.715542"/>
     <use xlink:href="#md95b7d85fb" x="175.042027" y="165.841306" style="fill: #2171b5; fill-opacity: 0.9; stroke: #000000; stroke-opacity: 0.9; stroke-width: 0.715542"/>
     <use xlink:href="#md95b7d85fb" x="252.807282" y="188.391716" style="fill: #2171b5; fill-opacity: 0.9; stroke: #000000; stroke-opacity: 0.9; stroke-width: 0.715542"/>
     <use xlink:href="#md95b7d85fb" x="504.322968" y="128.069368" style="fill: #2171b5; fill-opacity: 0.9; stroke: #000000; stroke-opacity: 0.9; stroke-width: 0.715542"/>
     <use xlink:href="#md95b7d85fb" x="438.601452" y="141.035854" style="fill: #2171b5; fill-opacity: 0.9; stroke: #000000; stroke-opacity: 0.9; stroke-width: 0.715542"/>
     <use xlink:href="#md95b7d85fb" x="233.936166" y="139.344573" style="fill: #2171b5; fill-opacity: 0.9; stroke: #000000; stroke-opacity: 0.9; stroke-width: 0.715542"/>
     <use xlink:href="#md95b7d85fb" x="218.806033" y="161.331223" style="fill: #2171b5; fill-opacity: 0.9; stroke: #000000; stroke-opacity: 0.9; stroke-width: 0.715542"/>
     <use xlink:href="#md95b7d85fb" x="325.043473" y="120.740485" style="fill: #2171b5; fill-opacity: 0.9; stroke: #000000; stroke-opacity: 0.9; stroke-width: 0.715542"/>
     <use xlink:href="#md95b7d85fb" x="469.571517" y="120.740485" style="fill: #2171b5; fill-opacity: 0.9; stroke: #000000; stroke-opacity: 0.9; stroke-width: 0.715542"/>
     <use xlink:href="#md95b7d85fb" x="286.577379" y="171.478908" style="fill: #2171b5; fill-opacity: 0.9; stroke: #000000; stroke-opacity: 0.9; stroke-width: 0.715542"/>
     <use xlink:href="#md95b7d85fb" x="507.107065" y="107.210239" style="fill: #2171b5; fill-opacity: 0.9; stroke: #000000; stroke-opacity: 0.9; stroke-width: 0.715542"/>
     <use xlink:href="#md95b7d85fb" x="380.373917" y="128.069368" style="fill: #2171b5; fill-opacity: 0.9; stroke: #000000; stroke-opacity: 0.9; stroke-width: 0.715542"/>
     <use xlink:href="#md95b7d85fb" x="498.673059" y="106.082718" style="fill: #2171b5; fill-opacity: 0.9; stroke: #000000; stroke-opacity: 0.9; stroke-width: 0.715542"/>
     <use xlink:href="#md95b7d85fb" x="218.806033" y="133.14321" style="fill: #2171b5; fill-opacity: 0.9; stroke: #000000; stroke-opacity: 0.9; stroke-width: 0.715542"/>
     <use xlink:href="#md95b7d85fb" x="304.832302" y="106.646478" style="fill: #2171b5; fill-opacity: 0.9; stroke: #000000; stroke-opacity: 0.9; stroke-width: 0.715542"/>
     <use xlink:href="#md95b7d85fb" x="495.475953" y="71.693342" style="fill: #2171b5; fill-opacity: 0.9; stroke: #000000; stroke-opacity: 0.9; stroke-width: 0.715542"/>
     <use xlink:href="#md95b7d85fb" x="513.268729" y="51.397973" style="fill: #2171b5; fill-opacity: 0.9; stroke: #000000; stroke-opacity: 0.9; stroke-width: 0.715542"/>
     <use xlink:href="#md95b7d85fb" x="536.525505" y="31.666364" style="fill: #2171b5; fill-opacity: 0.9; stroke: #000000; stroke-opacity: 0.9; stroke-width: 0.715542"/>
    </g>
   </g>
   <g id="PathCollection_2">
    <defs>
     <path id="m201b474700" d="M -0 12.247449 
L 12.247449 0 
L 0 -12.247449 
L -12.247449 -0 
z
" style="stroke: #000000; stroke-width: 1.385641"/>
    </defs>
    <g clip-path="url(#pb24db8862f)">
     <use xlink:href="#m201b474700" x="514.382595" y="205.868284" style="fill: #32cd32; stroke: #000000; stroke-width: 1.385641"/>
    </g>
   </g>
   <g id="PathCollection_3">
    <defs>
     <path id="maf2140b34c" d="M -6.123724 6.123724 
L 6.123724 6.123724 
L 6.123724 -6.123724 
L -6.123724 -6.123724 
z
" style="stroke: #000000; stroke-width: 0.979796"/>
    </defs>
    <g clip-path="url(#pb24db8862f)">
     <use xlink:href="#maf2140b34c" x="297.449261" y="362.593636" style="fill: #ffa500; stroke: #000000; stroke-width: 0.979796"/>
    </g>
   </g>
   <g id="PathCollection_4">
    <defs>
     <path id="mfccdbf6ff6" d="M -6.123724 6.123724 
L 6.123724 6.123724 
L 6.123724 -6.123724 
L -6.123724 -6.123724 
z
" style="stroke: #000000; stroke-width: 0.979796"/>
    </defs>
    <g clip-path="url(#pb24db8862f)">
     <use xlink:href="#mfccdbf6ff6" x="280.581156" y="346.244589" style="fill: #ff0000; stroke: #000000; stroke-width: 0.979796"/>
    </g>
   </g>
   <g id="patch_3">
    <path d="M 59.79 379.14 
L 59.79 15.12 
" style="fill: none; stroke: #262626; stroke-width: 2; stroke-linejoin: miter; stroke-linecap: square"/>
   </g>
   <g id="patch_4">
    <path d="M 560.88 379.14 
L 560.88 15.12 
" style="fill: none; stroke: #262626; stroke-width: 2; stroke-linejoin: miter; stroke-linecap: square"/>
   </g>
   <g id="patch_5">
    <path d="M 59.79 379.14 
L 560.88 379.14 
" style="fill: none; stroke: #262626; stroke-width: 2; stroke-linejoin: miter; stroke-linecap: square"/>
   </g>
   <g id="patch_6">
    <path d="M 59.79 15.12 
L 560.88 15.12 
" style="fill: none; stroke: #262626; stroke-width: 2; stroke-linejoin: miter; stroke-linecap: square"/>
   </g>
  </g>
 </g>
 <defs>
  <clipPath id="pb24db8862f">
   <rect x="59.79" y="15.12" width="501.09" height="364.02"/>
  </clipPath>
 </defs>
</svg>
